<svg width="640" height="435" viewBox="0 0 640 435" fill="none" xmlns="http://www.w3.org/2000/svg">
    <g clip-path="url(#58db3trb6a)">
        <path d="M387.788 13.691H252.802v103.576h134.986V13.691z" fill="#6866D3"/>
        <path d="M73.752 212.802V98.662l-1.224-.735v114.14l1.224.735z" fill="#6C5ABA"/>
        <path d="M73.752 98.662 243.252.72v115.22l-169.5 96.861V98.662z" fill="#5C5CBF"/>
        <path d="M72.528 97.927 242.042 0l1.21.72-169.5 97.942-1.224-.735z" fill="#9B99FF"/>
        <path d="M319.496 430.547 640 245.963 320.504 61.783 0 246.366l319.496 184.181z" fill="#C7F3FF"/>
        <path d="M319.496 430.547V435L640 250.402v-4.439L319.496 430.547z" fill="#A3D8E5"/>
        <path d="M319.496 435 0 250.82v-4.454l319.496 184.181V435z" fill="#76D0E5"/>
        <path d="m81.444 217.269 238.844 137.977 238.859-137.962L320.288 79.322 81.444 217.269z" fill="#896049"/>
        <path d="m297.068 279.585-153.871-89.064 130.866-75.545 92.464.072 130.939 75.401-154.058 89.136h-46.34z" fill="#6AC959"/>
        <path d="m246.479 238.599 73.809 42.644 73.838-42.616c-20.497-44.762-73.823-43.595-73.823-43.595s-53.327-1.167-73.824 43.567z" fill="#896049"/>
        <path d="m320.288 276.933-55.472-32.051 55.472-32.051 55.487 32.051-55.487 32.051z" fill="#6AC959"/>
        <path d="M83.302 218.408V111.632l-9.565-5.606v106.776l9.565 5.606z" fill="#6C5ABA"/>
        <path d="m83.302 111.632 169.5-97.941v95.535L83.302 206.1v-94.468z" fill="#5C50AD"/>
        <path d="M73.737 106.026 243.252 8.085l9.55 5.606-169.5 97.941-9.565-5.606z" fill="#8279F2"/>
        <path d="M566.824 212.802V98.662l1.225-.735v114.14l-1.225.735z" fill="#6C5ABA"/>
        <path d="M566.824 98.662 397.324.72v115.22l169.5 96.861V98.662z" fill="#6866D3"/>
        <path d="M568.049 97.927 398.534 0l-1.21.72 169.5 97.942 1.225-.735z" fill="#9B99FF"/>
        <path d="M557.274 218.408V111.632l9.565-5.606v106.776l-9.565 5.606z" fill="#6C5ABA"/>
        <path d="m557.274 111.632-169.5-97.941V112.8l169.5 96.874v-98.042z" fill="#635CBF"/>
        <path d="m566.839 106.026-169.5-97.941-9.565 5.606 169.5 97.941 9.565-5.606z" fill="#8279F2"/>
        <path d="m83.302 174.035 21.262 30.077 169.499-97.942-21.261-30.077-169.5 97.942z" fill="#F0F0F0"/>
        <path d="M274.063 106.17v.98l-169.499 97.913v-.995l169.499-97.898z" fill="#D1D1D1"/>
        <path d="m83.302 147.171 21.262 30.092 169.499-97.942-21.261-30.09-169.5 97.94z" fill="#F0F0F0"/>
        <path d="M274.063 79.322v.965l-169.499 97.927v-.994l169.499-97.898z" fill="#D1D1D1"/>
        <path d="m557.13 188.763-23.782 13.734-168.564-97.35 1.743-2.075 3.4-5.794 166.086 95.967 14.505-8.373 6.612 3.891z" fill="#8279F2"/>
        <path d="m557.288 169.956-21.261 30.077-169.5-97.999 21.261-30.02 169.5 97.942z" fill="#75CCC7"/>
        <path d="m383.986 72.044 175.492 101.414M381.883 75.056l175.492 101.4M379.779 78.068l175.493 101.4M377.676 81.065 553.183 182.48M375.573 84.077 551.08 185.492M373.47 87.09l175.507 101.399M371.367 90.087 546.874 191.5M369.278 93.099l175.493 101.415M367.175 96.111l175.493 101.4M365.072 99.109l175.492 101.414" stroke="#4FA8A3" stroke-width=".29" stroke-miterlimit="10"/>
        <path d="M366.527 102.034v1.038l169.5 97.912v-.994l-169.5-97.956z" fill="#5CB7B3"/>
        <path d="m536.027 200.033 21.261-12.279v-17.769l-21.261 30.048z" fill="#5AAFAB"/>
        <path d="M536.027 200.033v.937l21.261-12.279v-.937l-21.261 12.279z" fill="#969696"/>
        <path d="M533.348 202.497v1.197l-168.477-97.308v-1.21l168.477 97.321z" fill="#544AA3"/>
        <path d="m533.348 203.694 23.94-13.835v-1.168l-23.94 13.806v1.197z" fill="#7A7A7A"/>
        <path d="m275.749 105.176 89.122-.058 1.656-2.046-92.896-.519 2.118 2.623z" fill="#8279F2"/>
        <path d="M366.527 102.034h-92.464v1.038h92.464v-1.038z" fill="#7AD3D1"/>
        <path d="m83.46 188.763 23.783 13.734 168.563-97.379-1.743-2.046-3.399-5.794-166.086 95.967-14.505-8.373-6.612 3.891z" fill="#8279F2"/>
        <path d="m83.302 169.956 21.262 30.077 169.499-97.941-21.261-30.077-169.5 97.941z" fill="#75CCC7"/>
        <path d="M256.605 72.044 81.113 173.458M258.708 75.056l-175.492 101.4M260.811 78.068l-175.506 101.4M262.914 81.065 87.408 182.48M265.017 84.077 89.511 185.492M267.106 87.09 91.614 188.488M269.209 90.087 93.717 191.5M271.312 93.099 95.82 194.514M273.415 96.111l-175.492 101.4M275.518 99.109 100.026 200.523" stroke="#4FA8A3" stroke-width=".29" stroke-miterlimit="10"/>
        <path d="M274.063 102.092v.98l-169.499 97.912v-.994l169.499-97.898z" fill="#5CB7B3"/>
        <path d="m104.564 200.033-21.262-12.279v-17.769l21.262 30.048z" fill="#5AAFAB"/>
        <path d="M104.564 200.033v.937l-21.262-12.279v-.937l21.262 12.279z" fill="#5AAFAB"/>
        <path d="M107.243 202.497v1.197l168.463-97.308v-1.21l-168.463 97.321z" fill="#544AA3"/>
        <path d="m107.243 203.694-23.94-13.835v-1.168l23.94 13.806v1.197z" fill="#5C50AD"/>
        <path d="M364.871 105.118h-89.165v1.269h89.165v-1.269z" fill="#6C5ABA"/>
        <path d="M252.802 72.015h134.986l-21.261 30.019-92.463.058-21.262-30.077z" fill="#75CCC7"/>
        <path d="M252.802 73.571h134.986M252.802 76.554h134.986M252.802 79.552h134.986M252.802 82.55h134.986M252.802 85.547h134.986M252.802 88.545h134.986M252.802 91.543h134.986M252.802 94.54h134.986M252.802 97.538h134.986M252.802 100.535h134.986" stroke="#4FA8A3" stroke-width=".29" stroke-miterlimit="10"/>
        <path d="m83.562 165.575-.26.144.26.158.273-.158-.273-.144z" fill="#F2F2F2"/>
        <path d="M83.562 165.878v4.467l.273-.158v-4.468l-.273.159z" fill="#D9D9D9"/>
        <path d="M83.302 165.719v4.237l.26.389v-4.467l-.26-.159z" fill="#CCC"/>
        <path d="m83.62 168.255 10.212 14.34.144-.029-10.256-14.397s-.058-.029-.086 0c-.03.029-.03.058 0 .086h-.015zM83.677 169.192l10.213 14.34.144-.029-10.256-14.397s-.058-.029-.087 0c-.029.029-.029.057 0 .086h-.014zM83.72 170.086l10.213 14.339.144-.029-10.256-14.397s-.058-.029-.087 0c-.028.029-.028.058 0 .087h-.014z" fill="#696969"/>
        <path d="m93.933 181.5-.274.144.274.158.26-.158-.26-.144z" fill="#F2F2F2"/>
        <path d="M93.933 181.802v3.185l.26-.144v-3.199l-.26.158z" fill="#D9D9D9"/>
        <path d="M93.66 181.644v2.969l.273.374v-3.185l-.274-.158z" fill="#CCC"/>
        <path d="m93.99 182.998 10.516 14.859.144-.029-10.559-14.916s-.057-.029-.086 0c-.029.029-.029.058 0 .086h-.014zM94.048 183.95l10.516 14.858.144-.029-10.559-14.916s-.058-.029-.086 0c-.03.029-.03.058 0 .087h-.015zM94.091 184.829l10.516 14.858.144-.029-10.559-14.916s-.057-.029-.086 0c-.029.029-.029.058 0 .087h-.015z" fill="#696969"/>
        <path d="m104.823 196.56-.259.158.259.144.274-.144-.274-.158z" fill="#F2F2F2"/>
        <path d="M104.823 196.863v4.237l.274-.145v-4.237l-.274.145z" fill="#D9D9D9"/>
        <path d="M104.564 196.718v4.237l.259.145v-4.237l-.259-.145z" fill="#CCC"/>
        <path d="m107.243 197.943-.274.159.274.158.259-.158-.259-.159z" fill="#F2F2F2"/>
        <path d="M107.243 198.26v4.237l.259-.158v-4.237l-.259.158z" fill="#D9D9D9"/>
        <path d="M106.969 198.102v4.237l.274.158v-4.237l-.274-.158z" fill="#CCC"/>
        <path d="m119.962 190.55-.259.159.259.158.274-.158-.274-.159z" fill="#F2F2F2"/>
        <path d="M119.962 190.867v4.237l.274-.158v-4.237l-.274.158z" fill="#D9D9D9"/>
        <path d="M119.703 190.709v4.237l.259.158v-4.237l-.259-.158z" fill="#CCC"/>
        <path d="m132.696 183.244-.274.158.274.144.274-.144-.274-.158z" fill="#F2F2F2"/>
        <path d="M132.696 183.546v4.237l.274-.144v-4.237l-.274.144z" fill="#D9D9D9"/>
        <path d="M132.422 183.402v4.237l.274.144v-4.237l-.274-.144z" fill="#CCC"/>
        <path d="m145.43 175.894-.274.144.274.158.259-.158-.259-.144z" fill="#F2F2F2"/>
        <path d="M145.43 176.196v4.237l.259-.158v-4.237l-.259.158z" fill="#D9D9D9"/>
        <path d="M145.156 176.038v4.237l.274.158v-4.237l-.274-.158z" fill="#CCC"/>
        <path d="m158.149 168.529-.259.159.259.144.274-.144-.274-.159z" fill="#F2F2F2"/>
        <path d="M158.149 168.832v4.237l.274-.144v-4.237l-.274.144z" fill="#D9D9D9"/>
        <path d="M157.89 168.688v4.237l.259.144v-4.237l-.259-.144z" fill="#CCC"/>
        <path d="m170.883 161.165-.26.158.26.159.273-.159-.273-.158z" fill="#F2F2F2"/>
        <path d="M170.883 161.482v4.237l.273-.159v-4.237l-.273.159z" fill="#D9D9D9"/>
        <path d="M170.623 161.323v4.237l.26.159v-4.237l-.26-.159z" fill="#CCC"/>
        <path d="m183.616 153.815-.273.158.273.145.26-.145-.26-.158z" fill="#F2F2F2"/>
        <path d="M183.616 154.118v4.237l.26-.144v-4.237l-.26.144z" fill="#D9D9D9"/>
        <path d="M183.343 153.974v4.237l.273.144v-4.237l-.273-.144z" fill="#CCC"/>
        <path d="m196.35 146.465-.273.159.273.158.26-.158-.26-.159z" fill="#F2F2F2"/>
        <path d="M196.35 146.782v4.237l.26-.158v-4.237l-.26.158z" fill="#D9D9D9"/>
        <path d="M196.077 146.624v4.237l.273.158v-4.237l-.273-.158z" fill="#CCC"/>
        <path d="m209.07 139.13-.26.158.26.144.273-.144-.273-.158z" fill="#F2F2F2"/>
        <path d="M209.07 139.432v4.237l.273-.144v-4.237l-.273.144z" fill="#D9D9D9"/>
        <path d="M208.81 139.288v4.237l.26.144v-4.237l-.26-.144z" fill="#CCC"/>
        <path d="m221.803 131.765-.259.159.259.144.274-.144-.274-.159z" fill="#F2F2F2"/>
        <path d="M221.803 132.068v4.237l.274-.144v-4.237l-.274.144z" fill="#D9D9D9"/>
        <path d="M221.544 131.924v4.237l.259.144v-4.237l-.259-.144z" fill="#CCC"/>
        <path d="m234.537 124.415-.274.159.274.144.259-.144-.259-.159z" fill="#F2F2F2"/>
        <path d="M234.537 124.718v4.251l.259-.158v-4.237l-.259.144z" fill="#D9D9D9"/>
        <path d="M234.263 124.574v4.237l.274.158v-4.251l-.274-.144z" fill="#CCC"/>
        <path d="m247.4 116.979-.273.158.273.159.26-.159-.26-.158z" fill="#F2F2F2"/>
        <path d="M247.4 117.296v4.237l.26-.159v-4.237l-.26.159z" fill="#D9D9D9"/>
        <path d="M247.127 117.137v4.237l.273.159v-4.237l-.273-.159z" fill="#CCC"/>
        <path d="m260.307 109.528-.274.159.274.158.259-.158-.259-.159z" fill="#F2F2F2"/>
        <path d="M260.307 109.845v4.237l.259-.158v-4.237l-.259.158z" fill="#D9D9D9"/>
        <path d="M260.033 109.687v4.237l.274.158v-4.237l-.274-.158z" fill="#CCC"/>
        <path d="m275.446 100.78-.273.159.273.158.26-.158-.26-.159z" fill="#F2F2F2"/>
        <path d="M275.446 101.097v4.237l.26-.158v-4.237l-.26.158z" fill="#D9D9D9"/>
        <path d="M275.173 100.939v4.237l.273.158v-4.237l-.273-.158z" fill="#CCC"/>
        <path d="M293.467 100.939h-.303v4.237h.303v-4.237z" fill="#D9D9D9"/>
        <path d="M293.423 100.896h-.201l-.058.043h.302l-.043-.043z" fill="#F2F2F2"/>
        <path d="M311.429 100.939h-.302v4.237h.302v-4.237z" fill="#D9D9D9"/>
        <path d="M311.371 100.896h-.201l-.043.043h.287l-.043-.043z" fill="#F2F2F2"/>
        <path d="M329.377 100.939h-.302v4.237h.302v-4.237z" fill="#D9D9D9"/>
        <path d="M329.333 100.896h-.201l-.057.043h.302l-.044-.043z" fill="#F2F2F2"/>
        <path d="M347.34 100.939h-.302v4.237h.302v-4.237z" fill="#D9D9D9"/>
        <path d="M347.282 100.896h-.201l-.043.043h.301l-.057-.043z" fill="#F2F2F2"/>
        <path d="M365.303 100.939H365v4.237h.303v-4.237z" fill="#D9D9D9"/>
        <path d="M365.244 100.896h-.201l-.043.043h.287l-.043-.043z" fill="#F2F2F2"/>
        <path d="M293.164 102.121h-17.458v.115h17.458v-.115zM293.164 103.014h-17.458v.115h17.458v-.115zM293.164 103.908h-17.458v.115h17.458v-.115zM293.164 104.787h-17.458v.115h17.458v-.115zM311.127 102.121h-17.66v.115h17.66v-.115zM311.127 103.014h-17.66v.115h17.66v-.115zM311.127 103.908h-17.66v.115h17.66v-.115zM311.127 104.787h-17.66v.115h17.66v-.115zM329.075 102.121h-17.66v.115h17.66v-.115zM329.075 103.014h-17.66v.115h17.66v-.115zM329.075 103.908h-17.66v.115h17.66v-.115zM329.075 104.787h-17.66v.115h17.66v-.115zM347.038 102.121h-17.661v.115h17.661v-.115zM347.038 103.014h-17.661v.115h17.661v-.115zM347.038 103.908h-17.661v.115h17.661v-.115zM347.038 104.787h-17.661v.115h17.661v-.115zM365 102.121h-17.66v.115H365v-.115zM365 103.014h-17.66v.115H365v-.115zM365 103.908h-17.66v.115H365v-.115zM365 104.787h-17.66v.115H365v-.115zM119.775 191.905l-12.273 7.09v.144l12.331-7.119s.043-.058.028-.086c-.014-.029-.057-.044-.086-.029zM119.775 192.798l-12.273 7.091v.144l12.331-7.119s.043-.058.028-.087c-.014-.029-.057-.043-.086-.029zM119.775 193.677l-12.273 7.091v.144l12.331-7.119s.043-.058.028-.087c-.014-.029-.057-.043-.086-.029zM119.775 194.571l-12.273 7.09v.145l12.331-7.12s.043-.057.028-.086c-.014-.029-.057-.043-.086-.029zM105.053 197.914l1.916 1.096v.144l-1.973-1.139s-.043-.057-.029-.086c.014-.029.058-.043.086-.029v.014zM105.053 198.808l1.916 1.095v.144l-1.973-1.138s-.043-.058-.029-.087c.014-.028.058-.043.086-.028v.014zM105.053 199.687l1.916 1.095v.144l-1.973-1.138s-.043-.058-.029-.087c.014-.028.058-.043.086-.028v.014zM105.053 200.581l1.916 1.095v.144l-1.973-1.139s-.043-.057-.029-.086c.014-.029.058-.043.086-.029v.015zM132.509 184.541l-12.273 7.09v.144l12.33-7.119s.044-.058.029-.087c-.014-.028-.058-.043-.086-.028zM132.509 185.434l-12.273 7.091v.144l12.33-7.12s.044-.057.029-.086c-.014-.029-.058-.043-.086-.029zM132.509 186.313l-12.273 7.091v.144l12.33-7.12s.044-.057.029-.086c-.014-.029-.058-.043-.086-.029zM132.509 187.207l-12.273 7.09v.144l12.33-7.119s.044-.058.029-.086c-.014-.029-.058-.044-.086-.029zM145.228 177.191l-12.273 7.09v.144l12.331-7.119s.043-.058.028-.087c-.014-.028-.057-.043-.086-.028zM145.228 178.07l-12.273 7.09v.144l12.331-7.119s.043-.058.028-.086c-.014-.029-.057-.044-.086-.029zM145.228 178.963l-12.273 7.091v.144l12.331-7.12s.043-.057.028-.086c-.014-.029-.057-.043-.086-.029zM145.228 179.842l-12.273 7.091v.144l12.331-7.119s.043-.058.028-.087c-.014-.029-.057-.043-.086-.029zM157.962 169.841l-12.273 7.09v.144l12.33-7.119s.044-.058.029-.086c-.014-.029-.057-.044-.086-.029zM157.962 170.734l-12.273 7.091v.144l12.33-7.119s.044-.058.029-.087c-.014-.029-.057-.043-.086-.029zM157.962 171.613l-12.273 7.091v.144l12.33-7.119s.044-.058.029-.087c-.014-.029-.057-.043-.086-.029zM157.962 172.507l-12.273 7.09v.145l12.33-7.12s.044-.057.029-.086c-.014-.029-.057-.044-.086-.029zM170.696 162.491l-12.273 7.09v.144l12.33-7.119s.043-.058.029-.086c-.014-.029-.058-.044-.086-.029zM170.696 163.37l-12.273 7.09v.145l12.33-7.12s.043-.057.029-.086c-.014-.029-.058-.043-.086-.029zM170.696 164.263l-12.273 7.091v.144l12.33-7.119s.043-.058.029-.087c-.014-.029-.058-.043-.086-.029zM170.696 165.142l-12.273 7.091v.144l12.33-7.119s.043-.058.029-.087c-.014-.029-.058-.043-.086-.029zM183.429 155.17l-12.273 7.09v.144l12.331-7.119s.043-.058.029-.086c-.015-.029-.058-.044-.087-.029zM183.429 156.063l-12.273 7.091v.144l12.331-7.119s.043-.058.029-.087a.07.07 0 0 0-.087-.029zM183.429 156.942l-12.273 7.091v.144l12.331-7.119s.043-.058.029-.087a.07.07 0 0 0-.087-.029zM183.429 157.836l-12.273 7.09v.144l12.331-7.119s.043-.057.029-.086c-.015-.029-.058-.044-.087-.029zM196.149 147.863l-12.273 7.09v.145l12.33-7.12s.043-.057.029-.086c-.014-.029-.058-.043-.086-.029zM196.149 148.742l-12.273 7.091v.144l12.33-7.12s.043-.057.029-.086c-.014-.029-.058-.043-.086-.029zM196.149 149.636l-12.273 7.09v.144l12.33-7.119s.043-.058.029-.087c-.014-.028-.058-.043-.086-.028zM196.149 150.515l-12.273 7.09v.144l12.33-7.119s.043-.058.029-.086c-.014-.029-.058-.044-.086-.029zM208.882 140.455l-12.273 7.091v.144l12.331-7.119s.043-.058.029-.087a.07.07 0 0 0-.087-.029zM208.882 141.349l-12.273 7.09v.145l12.331-7.12s.043-.057.029-.086a.07.07 0 0 0-.087-.029zM208.882 142.228l-12.273 7.09v.145l12.331-7.12s.043-.057.029-.086a.07.07 0 0 0-.087-.029zM208.882 143.121l-12.273 7.091v.144l12.331-7.119s.043-.058.029-.087c-.015-.028-.058-.043-.087-.029zM221.616 133.048l-12.273 7.09v.145l12.331-7.12s.043-.057.028-.086c-.014-.029-.057-.044-.086-.029zM221.616 133.941l-12.273 7.091v.144l12.331-7.119s.043-.058.028-.087c-.014-.029-.057-.043-.086-.029zM221.616 134.82l-12.273 7.091v.144l12.331-7.119s.043-.058.028-.087c-.014-.029-.057-.043-.086-.029zM221.616 135.714l-12.273 7.091v.144l12.331-7.12s.043-.057.028-.086c-.014-.029-.057-.043-.086-.029zM234.35 125.712l-12.273 7.091v.144l12.33-7.119s.044-.058.029-.087c-.014-.029-.057-.043-.086-.029zM234.35 126.606l-12.273 7.09v.145l12.33-7.12s.044-.057.029-.086c-.014-.029-.057-.044-.086-.029zM234.35 127.485l-12.273 7.09v.145l12.33-7.12s.044-.057.029-.086c-.014-.029-.057-.044-.086-.029zM234.35 128.378l-12.273 7.091v.144l12.33-7.119s.044-.058.029-.087c-.014-.029-.057-.043-.086-.029zM247.184 118.334l-12.388 7.148v.144l12.446-7.192s.043-.057.029-.086c-.015-.029-.058-.043-.087-.029v.015zM247.184 119.213l-12.388 7.148v.144l12.446-7.191s.043-.058.029-.087a.07.07 0 0 0-.087-.029v.015zM247.184 120.106l-12.388 7.148v.144l12.446-7.191s.043-.058.029-.086c-.015-.029-.058-.044-.087-.029v.014zM247.184 120.985l-12.388 7.148v.145l12.446-7.192s.043-.057.029-.086c-.015-.029-.058-.044-.087-.029v.014zM260.077 110.854l-12.403 7.162v.145l12.475-7.206s.043-.058.028-.087c-.014-.028-.057-.043-.086-.028l-.014.014zM260.077 111.747l-12.403 7.163v.144l12.475-7.206s.043-.057.028-.086c-.014-.029-.057-.043-.086-.029l-.014.014zM260.077 112.627l-12.403 7.162v.144l12.475-7.206s.043-.057.028-.086c-.014-.029-.057-.043-.086-.029l-.014.015zM260.077 113.52l-12.403 7.163v.144l12.475-7.206s.043-.058.028-.087c-.014-.028-.057-.043-.086-.028l-.014.014zM275.259 102.092l-14.678 8.474v.144l14.75-8.517s.043-.058.029-.087c-.014-.029-.058-.043-.087-.029l-.014.015zM275.259 102.985l-14.678 8.474v.144l14.75-8.517s.043-.057.029-.086c-.014-.029-.058-.044-.087-.029l-.014.014zM275.259 103.879l-14.678 8.474v.144l14.75-8.517s.043-.058.029-.087c-.014-.029-.058-.043-.087-.029l-.014.015zM275.259 104.758l-14.678 8.474v.144l14.75-8.517s.043-.058.029-.087c-.014-.029-.058-.043-.087-.029l-.014.015z" fill="#696969"/>
        <path d="m556.986 165.575.259.144-.259.158-.274-.158.274-.144z" fill="#F2F2F2"/>
        <path d="M556.986 165.878v4.467l-.274-.158v-4.468l.274.159z" fill="#D9D9D9"/>
        <path d="M557.245 165.719v4.237l-.259.389v-4.467l.259-.159z" fill="#CCC"/>
        <path d="m556.928 168.255-10.213 14.34-.144-.029 10.256-14.397s.058-.029.087 0c.029.029.029.058 0 .086h.014zM556.885 169.192l-10.213 14.34-.144-.029 10.256-14.397s.058-.029.087 0c.028.029.028.057 0 .086h.014zM556.827 170.086l-10.212 14.339-.145-.029 10.257-14.397s.057-.029.086 0c.029.029.029.058 0 .087h.014z" fill="#696969"/>
        <path d="m546.629 181.5.259.144-.259.158-.274-.158.274-.144z" fill="#F2F2F2"/>
        <path d="M546.629 181.802v3.185l-.274-.144v-3.199l.274.158z" fill="#D9D9D9"/>
        <path d="M546.888 181.644v2.969l-.259.374v-3.185l.259-.158z" fill="#CCC"/>
        <path d="m546.557 182.998-10.516 14.859-.144-.029 10.559-14.916s.058-.029.086 0c.029.029.029.058 0 .086h.015zM546.514 183.95l-10.516 14.858-.144-.029 10.559-14.916s.057-.029.086 0c.029.029.029.058 0 .087h.015zM546.456 184.829l-10.515 14.858-.144-.029 10.558-14.916s.058-.029.087 0c.028.029.028.058 0 .087h.014z" fill="#696969"/>
        <path d="m535.725 196.56.273.158-.273.144-.26-.144.26-.158z" fill="#F2F2F2"/>
        <path d="M535.725 196.863v4.237l-.26-.145v-4.237l.26.145z" fill="#D9D9D9"/>
        <path d="M535.998 196.718v4.237l-.273.145v-4.237l.273-.145z" fill="#CCC"/>
        <path d="m533.319 197.943.259.159-.259.158-.274-.158.274-.159z" fill="#F2F2F2"/>
        <path d="M533.319 198.26v4.237l-.274-.158v-4.237l.274.158z" fill="#D9D9D9"/>
        <path d="M533.578 198.102v4.237l-.259.158v-4.237l.259-.158z" fill="#CCC"/>
        <path d="m520.585 190.55.274.159-.274.158-.273-.158.273-.159z" fill="#F2F2F2"/>
        <path d="M520.585 190.867v4.237l-.273-.158v-4.237l.273.158z" fill="#D9D9D9"/>
        <path d="M520.859 190.709v4.237l-.274.158v-4.237l.274-.158z" fill="#CCC"/>
        <path d="m507.851 183.244.274.158-.274.144-.259-.144.259-.158z" fill="#F2F2F2"/>
        <path d="M507.851 183.546v4.237l-.259-.144v-4.237l.259.144z" fill="#D9D9D9"/>
        <path d="M508.125 183.402v4.237l-.274.144v-4.237l.274-.144z" fill="#CCC"/>
        <path d="m495.132 175.894.259.144-.259.158-.274-.158.274-.144z" fill="#F2F2F2"/>
        <path d="M495.132 176.196v4.237l-.274-.158v-4.237l.274.158z" fill="#D9D9D9"/>
        <path d="M495.391 176.038v4.237l-.259.158v-4.237l.259-.158z" fill="#CCC"/>
        <path d="m482.398 168.529.26.159-.26.144-.273-.144.273-.159z" fill="#F2F2F2"/>
        <path d="M482.398 168.832v4.237l-.273-.144v-4.237l.273.144z" fill="#D9D9D9"/>
        <path d="M482.658 168.688v4.237l-.26.144v-4.237l.26-.144z" fill="#CCC"/>
        <path d="m469.665 161.165.273.158-.273.159-.26-.159.26-.158z" fill="#F2F2F2"/>
        <path d="M469.665 161.482v4.237l-.26-.159v-4.237l.26.159z" fill="#D9D9D9"/>
        <path d="M469.938 161.323v4.237l-.273.159v-4.237l.273-.159z" fill="#CCC"/>
        <path d="m456.931 153.815.274.158-.274.145-.259-.145.259-.158z" fill="#F2F2F2"/>
        <path d="M456.931 154.118v4.237l-.259-.144v-4.237l.259.144z" fill="#D9D9D9"/>
        <path d="M457.205 153.974v4.237l-.274.144v-4.237l.274-.144z" fill="#CCC"/>
        <path d="m444.212 146.465.259.159-.259.158-.274-.158.274-.159z" fill="#F2F2F2"/>
        <path d="M444.212 146.782v4.237l-.274-.158v-4.237l.274.158z" fill="#D9D9D9"/>
        <path d="M444.471 146.624v4.237l-.259.158v-4.237l.259-.158z" fill="#CCC"/>
        <path d="m431.478 139.13.274.158-.274.144-.274-.144.274-.158z" fill="#F2F2F2"/>
        <path d="M431.478 139.432v4.237l-.274-.144v-4.237l.274.144z" fill="#D9D9D9"/>
        <path d="M431.752 139.288v4.237l-.274.144v-4.237l.274-.144z" fill="#CCC"/>
        <path d="m418.744 131.765.274.159-.274.144-.259-.144.259-.159z" fill="#F2F2F2"/>
        <path d="M418.744 132.068v4.237l-.259-.144v-4.237l.259.144z" fill="#D9D9D9"/>
        <path d="M419.018 131.924v4.237l-.274.144v-4.237l.274-.144z" fill="#CCC"/>
        <path d="m406.025 124.415.259.159-.259.144-.274-.144.274-.159z" fill="#F2F2F2"/>
        <path d="M406.025 124.718v4.251l-.274-.158v-4.237l.274.144z" fill="#D9D9D9"/>
        <path d="M406.284 124.574v4.237l-.259.158v-4.251l.259-.144z" fill="#CCC"/>
        <path d="m393.161 116.979.26.158-.26.159-.273-.159.273-.158z" fill="#F2F2F2"/>
        <path d="M393.161 117.296v4.237l-.273-.159v-4.237l.273.159z" fill="#D9D9D9"/>
        <path d="M393.421 117.137v4.237l-.26.159v-4.237l.26-.159z" fill="#CCC"/>
        <path d="m380.255 109.528.259.159-.259.158-.274-.158.274-.159z" fill="#F2F2F2"/>
        <path d="M380.255 109.845v4.237l-.274-.158v-4.237l.274.158z" fill="#D9D9D9"/>
        <path d="M380.514 109.687v4.237l-.259.158v-4.237l.259-.158z" fill="#CCC"/>
        <path d="m365.101 100.78.274.159-.274.158-.259-.158.259-.159z" fill="#F2F2F2"/>
        <path d="M365.101 101.097v4.237l-.259-.158v-4.237l.259.158z" fill="#D9D9D9"/>
        <path d="M365.375 100.939v4.237l-.274.158v-4.237l.274-.158z" fill="#CCC"/>
        <path d="m520.772 191.905 12.273 7.09v.144l-12.33-7.119s-.043-.058-.029-.086c.014-.029.058-.044.086-.029zM520.772 192.798l12.273 7.091v.144l-12.33-7.119s-.043-.058-.029-.087c.014-.029.058-.043.086-.029zM520.772 193.677l12.273 7.091v.144l-12.33-7.119s-.043-.058-.029-.087c.014-.029.058-.043.086-.029zM520.772 194.571l12.273 7.09v.145l-12.33-7.12s-.043-.057-.029-.086c.014-.029.058-.043.086-.029zM535.494 197.914l-1.916 1.096v.144l1.974-1.139s.043-.057.028-.086c-.014-.029-.057-.043-.086-.029v.014zM535.494 198.808l-1.916 1.095v.144l1.974-1.138s.043-.058.028-.087c-.014-.028-.057-.043-.086-.028v.014zM535.494 199.687l-1.916 1.095v.144l1.974-1.138s.043-.058.028-.087c-.014-.028-.057-.043-.086-.028v.014zM535.494 200.581l-1.916 1.095v.144l1.974-1.139s.043-.057.028-.086c-.014-.029-.057-.043-.086-.029v.015zM508.053 184.541l12.273 7.09v.144l-12.33-7.119s-.044-.058-.029-.087c.014-.028.057-.043.086-.028zM508.053 185.434l12.273 7.091v.144l-12.33-7.12s-.044-.057-.029-.086c.014-.029.057-.043.086-.029zM508.053 186.313l12.273 7.091v.144l-12.33-7.12s-.044-.057-.029-.086c.014-.029.057-.043.086-.029zM508.053 187.207l12.273 7.09v.144l-12.33-7.119s-.044-.058-.029-.086c.014-.029.057-.044.086-.029zM495.319 177.191l12.273 7.09v.144l-12.33-7.119s-.043-.058-.029-.087c.014-.028.058-.043.086-.028zM495.319 178.07l12.273 7.09v.144l-12.33-7.119s-.043-.058-.029-.086c.014-.029.058-.044.086-.029zM495.319 178.963l12.273 7.091v.144l-12.33-7.12s-.043-.057-.029-.086c.014-.029.058-.043.086-.029zM495.319 179.842l12.273 7.091v.144l-12.33-7.119s-.043-.058-.029-.087c.014-.029.058-.043.086-.029zM482.586 169.841l12.272 7.09v.144l-12.33-7.119s-.043-.058-.029-.086c.015-.029.058-.044.087-.029zM482.586 170.734l12.272 7.091v.144l-12.33-7.119s-.043-.058-.029-.087a.07.07 0 0 1 .087-.029zM482.586 171.613l12.272 7.091v.144l-12.33-7.119s-.043-.058-.029-.087a.07.07 0 0 1 .087-.029zM482.586 172.507l12.272 7.09v.145l-12.33-7.12s-.043-.057-.029-.086c.015-.029.058-.044.087-.029zM469.852 162.491l12.273 7.09v.144l-12.331-7.119s-.043-.058-.028-.086c.014-.029.057-.044.086-.029zM469.852 163.37l12.273 7.09v.145l-12.331-7.12s-.043-.057-.028-.086c.014-.029.057-.043.086-.029zM469.852 164.263l12.273 7.091v.144l-12.331-7.119s-.043-.058-.028-.087c.014-.029.057-.043.086-.029zM469.852 165.142l12.273 7.091v.144l-12.331-7.119s-.043-.058-.028-.087c.014-.029.057-.043.086-.029zM457.133 155.17l12.272 7.09v.144l-12.33-7.119s-.043-.058-.029-.086c.015-.029.058-.044.087-.029zM457.133 156.063l12.272 7.091v.144l-12.33-7.119s-.043-.058-.029-.087a.07.07 0 0 1 .087-.029zM457.133 156.942l12.272 7.091v.144l-12.33-7.119s-.043-.058-.029-.087a.07.07 0 0 1 .087-.029zM457.133 157.836l12.272 7.09v.144l-12.33-7.119s-.043-.057-.029-.086c.015-.029.058-.044.087-.029zM444.399 147.863l12.273 7.09v.145l-12.331-7.12s-.043-.057-.029-.086a.07.07 0 0 1 .087-.029zM444.399 148.742l12.273 7.091v.144l-12.331-7.12s-.043-.057-.029-.086a.07.07 0 0 1 .087-.029zM444.399 149.636l12.273 7.09v.144l-12.331-7.119s-.043-.058-.029-.087c.015-.028.058-.043.087-.028zM444.399 150.515l12.273 7.09v.144l-12.331-7.119s-.043-.058-.029-.086c.015-.029.058-.044.087-.029zM431.665 140.455l12.273 7.091v.144l-12.33-7.119s-.044-.058-.029-.087c.014-.029.057-.043.086-.029zM431.665 141.349l12.273 7.09v.145l-12.33-7.12s-.044-.057-.029-.086c.014-.029.057-.043.086-.029zM431.665 142.228l12.273 7.09v.145l-12.33-7.12s-.044-.057-.029-.086c.014-.029.057-.043.086-.029zM431.665 143.121l12.273 7.091v.144l-12.33-7.119s-.044-.058-.029-.087c.014-.028.057-.043.086-.029zM418.946 133.048l12.273 7.09v.145l-12.331-7.12s-.043-.057-.029-.086c.015-.029.058-.044.087-.029zM418.946 133.941l12.273 7.091v.144l-12.331-7.119s-.043-.058-.029-.087a.07.07 0 0 1 .087-.029zM418.946 134.82l12.273 7.091v.144l-12.331-7.119s-.043-.058-.029-.087a.07.07 0 0 1 .087-.029zM418.946 135.714l12.273 7.091v.144l-12.331-7.12s-.043-.057-.029-.086a.07.07 0 0 1 .087-.029zM406.212 125.712l12.273 7.091v.144l-12.331-7.119s-.043-.058-.028-.087c.014-.029.057-.043.086-.029zM406.212 126.606l12.273 7.09v.145l-12.331-7.12s-.043-.057-.028-.086c.014-.029.057-.044.086-.029zM406.212 127.485l12.273 7.09v.145l-12.331-7.12s-.043-.057-.028-.086c.014-.029.057-.044.086-.029zM406.212 128.378l12.273 7.091v.144l-12.331-7.119s-.043-.058-.028-.087c.014-.029.057-.043.086-.029zM393.363 118.334l12.388 7.148v.144l-12.46-7.192s-.043-.057-.029-.086c.015-.029.058-.043.087-.029l.014.015zM393.363 119.213l12.388 7.148v.144l-12.46-7.191s-.043-.058-.029-.087a.07.07 0 0 1 .087-.029l.014.015zM393.363 120.106l12.388 7.148v.144l-12.46-7.191s-.043-.058-.029-.086c.015-.029.058-.044.087-.029l.014.014zM393.363 120.985l12.388 7.148v.145l-12.46-7.192s-.043-.057-.029-.086c.015-.029.058-.044.087-.029l.014.014zM380.471 110.854l12.417 7.162v.145l-12.475-7.206s-.043-.058-.029-.087c.015-.028.058-.043.087-.028v.014zM380.471 111.747l12.417 7.163v.144l-12.475-7.206s-.043-.057-.029-.086a.07.07 0 0 1 .087-.029v.014zM380.471 112.627l12.417 7.162v.144l-12.475-7.206s-.043-.057-.029-.086a.07.07 0 0 1 .087-.029v.015zM380.471 113.52l12.417 7.163v.144l-12.475-7.206s-.043-.058-.029-.087c.015-.028.058-.043.087-.028v.014zM365.288 102.092l14.679 8.474v.144l-14.751-8.517s-.043-.058-.028-.087c.014-.029.057-.043.086-.029l.014.015zM365.288 102.985l14.679 8.474v.144l-14.751-8.517s-.043-.057-.028-.086c.014-.029.057-.044.086-.029l.014.014zM365.288 103.879l14.679 8.474v.144l-14.751-8.517s-.043-.058-.028-.087c.014-.029.057-.043.086-.029l.014.015zM365.288 104.758l14.679 8.474v.144l-14.751-8.517s-.043-.058-.028-.087c.014-.029.057-.043.086-.029l.014.015z" fill="#696969"/>
        <path d="m557.13 165.258-23.782 13.734-168.564-97.35 1.743-2.075 3.4-5.794 166.086 95.967 14.505-8.373 6.612 3.891z" fill="#8279F2"/>
        <path d="m557.288 146.451-21.261 30.077-169.5-98 21.261-30.019 169.5 97.942z" fill="#87DDDA"/>
        <path d="m383.986 48.538 175.492 101.415M381.883 51.55l175.492 101.415M379.779 54.563l175.493 101.4M377.676 57.56l175.507 101.415M375.573 60.572 551.08 161.987M373.47 63.584l175.507 101.4M371.367 66.596l175.507 101.4M369.278 69.594l175.493 101.414M367.175 72.606l175.493 101.4M365.072 75.618l175.492 101.4" stroke="#56AFAA" stroke-width=".29" stroke-miterlimit="10"/>
        <path d="M366.527 78.529v1.038l169.5 97.912v-.98l-169.5-97.97z" fill="#5CB7B3"/>
        <path d="m536.027 176.528 21.261-12.279v-17.755l-21.261 30.034z" fill="#5AAFAB"/>
        <path d="M536.027 176.528v.937l21.261-12.279v-.937l-21.261 12.279z" fill="#969696"/>
        <path d="M533.348 178.992v1.211L364.871 82.881v-1.21l168.477 97.321z" fill="#544AA3"/>
        <path d="m533.348 180.203 23.94-13.85v-1.167l-23.94 13.806v1.211z" fill="#7A7A7A"/>
        <path d="m275.749 81.67 89.122-.057 1.656-2.046-92.896-.52 2.118 2.624z" fill="#8279F2"/>
        <path d="M366.527 78.529h-92.464v1.038h92.464v-1.038z" fill="#7AD3D1"/>
        <path d="m83.46 165.258 23.783 13.734 168.563-97.379-1.743-2.046-3.399-5.794-166.086 95.967-14.505-8.373-6.612 3.891z" fill="#8279F2"/>
        <path d="m83.302 146.451 21.262 30.077 169.499-97.941-21.261-30.078-169.5 97.942z" fill="#87DDDA"/>
        <path d="M256.605 48.539 81.113 149.953M258.708 51.55 83.216 152.965M260.811 54.562l-175.506 101.4M262.914 57.56 87.408 158.975M265.017 60.572 89.511 161.987M267.106 63.584l-175.492 101.4M269.209 66.596l-175.492 101.4M271.312 69.594 95.82 171.008M273.415 72.606l-175.492 101.4M275.518 75.618l-175.492 101.4" stroke="#56AFAA" stroke-width=".29" stroke-miterlimit="10"/>
        <path d="M274.063 78.587v.98l-169.499 97.912v-.98l169.499-97.912z" fill="#5CB7B3"/>
        <path d="m104.564 176.528-21.262-12.279v-17.755l21.262 30.034z" fill="#5AAFAB"/>
        <path d="M104.564 176.528v.937l-21.262-12.279v-.937l21.262 12.279z" fill="#5AAFAB"/>
        <path d="M107.243 178.992v1.211l168.463-97.322v-1.21l-168.463 97.321z" fill="#544AA3"/>
        <path d="m107.243 180.203-23.94-13.85v-1.167l23.94 13.806v1.211z" fill="#5C50AD"/>
        <path d="M364.871 81.613h-89.165v1.268h89.165v-1.268z" fill="#6C5ABA"/>
        <path d="M252.802 48.51h134.986l-21.261 30.019-92.463.058-21.262-30.078z" fill="#87DDDA"/>
        <path d="M252.802 50.066h134.986M252.802 53.063h134.986M252.802 56.061h134.986M252.802 59.044h134.986M252.802 62.042h134.986M252.802 65.04h134.986M252.802 68.037h134.986M252.802 71.035h134.986M252.802 74.032h134.986M252.802 77.03h134.986" stroke="#56AFAA" stroke-width=".29" stroke-miterlimit="10"/>
        <path d="m83.562 142.07-.26.144.26.158.273-.158-.273-.144z" fill="#F2F2F2"/>
        <path d="M83.562 142.372v4.468l.273-.159v-4.467l-.273.158z" fill="#D9D9D9"/>
        <path d="M83.302 142.214v4.251l.26.375v-4.468l-.26-.158z" fill="#CCC"/>
        <path d="m83.62 144.75 10.212 14.34.144-.029-10.256-14.397s-.058-.029-.086 0c-.03.029-.03.057 0 .086h-.015zM83.677 145.701l10.213 14.34.144-.029-10.256-14.397s-.058-.029-.087 0c-.029.029-.029.058 0 .086h-.014zM83.72 146.581l10.213 14.339.144-.029-10.256-14.397s-.058-.029-.087 0c-.028.029-.028.058 0 .087h-.014z" fill="#696969"/>
        <path d="m93.933 157.995-.274.158.274.144.26-.144-.26-.158z" fill="#F2F2F2"/>
        <path d="M93.933 158.297v3.2l.26-.159v-3.185l-.26.144z" fill="#D9D9D9"/>
        <path d="M93.66 158.153v2.954l.273.39v-3.2l-.274-.144z" fill="#CCC"/>
        <path d="m93.99 159.493 10.516 14.859.144-.029-10.559-14.916s-.057-.029-.086 0c-.029.029-.029.057 0 .086h-.014zM94.048 160.445l10.516 14.858.144-.029-10.559-14.916s-.058-.029-.086 0c-.03.029-.03.058 0 .087h-.015zM94.091 161.324l10.516 14.858.144-.029-10.559-14.916s-.057-.029-.086 0c-.029.029-.029.058 0 .087h-.015z" fill="#696969"/>
        <path d="m104.823 173.055-.259.158.259.144.274-.144-.274-.158z" fill="#F2F2F2"/>
        <path d="M104.823 173.357v4.252l.274-.159v-4.237l-.274.144z" fill="#D9D9D9"/>
        <path d="M104.564 173.213v4.237l.259.159v-4.252l-.259-.144z" fill="#CCC"/>
        <path d="m107.243 174.438-.274.159.274.158.259-.158-.259-.159z" fill="#F2F2F2"/>
        <path d="M107.243 174.755v4.237l.259-.158v-4.237l-.259.158z" fill="#D9D9D9"/>
        <path d="M106.969 174.597v4.237l.274.158v-4.237l-.274-.158z" fill="#CCC"/>
        <path d="m119.962 167.045-.259.159.259.158.274-.158-.274-.159z" fill="#F2F2F2"/>
        <path d="M119.962 167.362v4.237l.274-.158v-4.237l-.274.158z" fill="#D9D9D9"/>
        <path d="M119.703 167.204v4.237l.259.158v-4.237l-.259-.158z" fill="#CCC"/>
        <path d="m132.696 159.738-.274.159.274.144.274-.144-.274-.159z" fill="#F2F2F2"/>
        <path d="M132.696 160.041v4.252l.274-.159v-4.237l-.274.144z" fill="#D9D9D9"/>
        <path d="M132.422 159.897v4.237l.274.159v-4.252l-.274-.144z" fill="#CCC"/>
        <path d="m145.43 152.388-.274.145.274.158.259-.158-.259-.145z" fill="#F2F2F2"/>
        <path d="M145.43 152.691v4.237l.259-.144v-4.251l-.259.158z" fill="#D9D9D9"/>
        <path d="M145.156 152.533v4.251l.274.144v-4.237l-.274-.158z" fill="#CCC"/>
        <path d="m158.149 145.024-.259.159.259.144.274-.144-.274-.159z" fill="#F2F2F2"/>
        <path d="M158.149 145.327v4.237l.274-.144v-4.237l-.274.144z" fill="#D9D9D9"/>
        <path d="M157.89 145.183v4.237l.259.144v-4.237l-.259-.144z" fill="#CCC"/>
        <path d="m170.883 137.66-.26.158.26.159.273-.159-.273-.158z" fill="#F2F2F2"/>
        <path d="M170.883 137.977v4.237l.273-.159v-4.237l-.273.159z" fill="#D9D9D9"/>
        <path d="M170.623 137.818v4.237l.26.159v-4.237l-.26-.159z" fill="#CCC"/>
        <path d="m183.616 130.31-.273.158.273.144.26-.144-.26-.158z" fill="#F2F2F2"/>
        <path d="M183.616 130.612v4.252l.26-.159v-4.237l-.26.144z" fill="#D9D9D9"/>
        <path d="M183.343 130.468v4.237l.273.159v-4.252l-.273-.144z" fill="#CCC"/>
        <path d="m196.35 122.974-.273.144.273.159.26-.159-.26-.144z" fill="#F2F2F2"/>
        <path d="M196.35 123.277v4.237l.26-.158v-4.237l-.26.158z" fill="#D9D9D9"/>
        <path d="M196.077 123.119v4.237l.273.158v-4.237l-.273-.158z" fill="#CCC"/>
        <path d="m209.07 115.624-.26.159.26.144.273-.144-.273-.159z" fill="#F2F2F2"/>
        <path d="M209.07 115.927v4.237l.273-.144v-4.237l-.273.144z" fill="#D9D9D9"/>
        <path d="M208.81 115.783v4.237l.26.144v-4.237l-.26-.144z" fill="#CCC"/>
        <path d="m221.803 108.26-.259.159.259.144.274-.144-.274-.159z" fill="#F2F2F2"/>
        <path d="M221.803 108.563v4.237l.274-.144v-4.237l-.274.144z" fill="#D9D9D9"/>
        <path d="M221.544 108.419v4.237l.259.144v-4.237l-.259-.144z" fill="#CCC"/>
        <path d="m234.537 100.91-.274.159.274.158.259-.158-.259-.159z" fill="#F2F2F2"/>
        <path d="M234.537 101.227v4.237l.259-.158v-4.237l-.259.158z" fill="#D9D9D9"/>
        <path d="M234.263 101.069v4.237l.274.158v-4.237l-.274-.158z" fill="#CCC"/>
        <path d="m247.4 93.488-.273.144.273.159.26-.159-.26-.144z" fill="#F2F2F2"/>
        <path d="M247.4 93.79v4.238l.26-.159v-4.237l-.26.159z" fill="#D9D9D9"/>
        <path d="M247.127 93.632v4.237l.273.159V93.79l-.273-.159z" fill="#CCC"/>
        <path d="m260.307 86.037-.274.144.274.159.259-.159-.259-.144z" fill="#F2F2F2"/>
        <path d="M260.307 86.34v4.237l.259-.159v-4.237l-.259.159z" fill="#D9D9D9"/>
        <path d="M260.033 86.181v4.237l.274.16V86.34l-.274-.159z" fill="#CCC"/>
        <path d="m275.446 77.275-.273.159.273.158.26-.158-.26-.159z" fill="#F2F2F2"/>
        <path d="M275.446 77.592v4.237l.26-.158v-4.237l-.26.158z" fill="#D9D9D9"/>
        <path d="M275.173 77.434v4.237l.273.158v-4.237l-.273-.158z" fill="#CCC"/>
        <path d="M293.467 77.434h-.303v4.237h.303v-4.237z" fill="#D9D9D9"/>
        <path d="M293.423 77.39h-.201l-.058.044h.302l-.043-.043z" fill="#F2F2F2"/>
        <path d="M311.429 77.434h-.302v4.237h.302v-4.237z" fill="#D9D9D9"/>
        <path d="M311.371 77.39h-.201l-.043.044h.287l-.043-.043z" fill="#F2F2F2"/>
        <path d="M329.377 77.434h-.302v4.237h.302v-4.237z" fill="#D9D9D9"/>
        <path d="M329.333 77.39h-.201l-.057.044h.302l-.044-.043z" fill="#F2F2F2"/>
        <path d="M347.34 77.434h-.302v4.237h.302v-4.237z" fill="#D9D9D9"/>
        <path d="M347.282 77.39h-.201l-.043.044h.301l-.057-.043z" fill="#F2F2F2"/>
        <path d="M365.303 77.434H365v4.237h.303v-4.237z" fill="#D9D9D9"/>
        <path d="M365.244 77.39h-.201l-.043.044h.287l-.043-.043z" fill="#F2F2F2"/>
        <path d="M293.164 78.615h-17.458v.116h17.458v-.115zM293.164 79.509h-17.458v.115h17.458v-.115zM293.164 80.403h-17.458v.115h17.458v-.115zM293.164 81.296h-17.458v.115h17.458v-.115zM311.127 78.615h-17.66v.116h17.66v-.115zM311.127 79.509h-17.66v.115h17.66v-.115zM311.127 80.403h-17.66v.115h17.66v-.115zM311.127 81.296h-17.66v.115h17.66v-.115zM329.075 78.615h-17.66v.116h17.66v-.115zM329.075 79.509h-17.66v.115h17.66v-.115zM329.075 80.403h-17.66v.115h17.66v-.115zM329.075 81.296h-17.66v.115h17.66v-.115zM347.038 78.615h-17.661v.116h17.661v-.115zM347.038 79.509h-17.661v.115h17.661v-.115zM347.038 80.403h-17.661v.115h17.661v-.115zM347.038 81.296h-17.661v.115h17.661v-.115zM365 78.615h-17.66v.116H365v-.115zM365 79.509h-17.66v.115H365v-.115zM365 80.403h-17.66v.115H365v-.115zM365 81.296h-17.66v.115H365v-.115zM119.775 168.4l-12.273 7.09v.144l12.331-7.119s.043-.058.028-.086c-.014-.029-.057-.044-.086-.029zM119.775 169.293l-12.273 7.091v.144l12.331-7.119s.043-.058.028-.087c-.014-.029-.057-.043-.086-.029zM119.775 170.187l-12.273 7.09v.144l12.331-7.119s.043-.058.028-.086c-.014-.029-.057-.044-.086-.029zM119.775 171.066l-12.273 7.09v.144l12.331-7.119s.043-.058.028-.086c-.014-.029-.057-.044-.086-.029zM105.053 174.409l1.916 1.096v.144l-1.973-1.139s-.043-.057-.029-.086c.014-.029.058-.043.086-.029v.014zM105.053 175.303l1.916 1.095v.144l-1.973-1.138s-.043-.058-.029-.087c.014-.029.058-.043.086-.029v.015zM105.053 176.196l1.916 1.096v.144l-1.973-1.139s-.043-.057-.029-.086c.014-.029.058-.043.086-.029v.014zM105.053 177.075l1.916 1.096v.144l-1.973-1.139s-.043-.057-.029-.086c.014-.029.058-.043.086-.029v.014zM132.509 161.035l-12.273 7.091v.144l12.33-7.119s.044-.058.029-.087c-.014-.029-.058-.043-.086-.029zM132.509 161.929l-12.273 7.091v.144l12.33-7.12s.044-.057.029-.086c-.014-.029-.058-.043-.086-.029zM132.509 162.808l-12.273 7.091v.144l12.33-7.12s.044-.057.029-.086c-.014-.029-.058-.043-.086-.029zM132.509 163.702l-12.273 7.09v.144l12.33-7.119s.044-.058.029-.087c-.014-.028-.058-.043-.086-.028zM145.228 153.685l-12.273 7.091v.144l12.331-7.119s.043-.058.028-.087c-.014-.029-.057-.043-.086-.029zM145.228 154.565l-12.273 7.09v.144l12.331-7.119s.043-.058.028-.087c-.014-.028-.057-.043-.086-.028zM145.228 155.458l-12.273 7.091v.144l12.331-7.12s.043-.057.028-.086c-.014-.029-.057-.043-.086-.029zM145.228 156.337l-12.273 7.091v.144l12.331-7.12s.043-.057.028-.086c-.014-.029-.057-.043-.086-.029zM157.962 146.336l-12.273 7.09v.144l12.33-7.119s.044-.058.029-.087c-.014-.028-.057-.043-.086-.028zM157.962 147.229l-12.273 7.091v.144l12.33-7.12s.044-.057.029-.086c-.014-.029-.057-.043-.086-.029zM157.962 148.108l-12.273 7.091v.144l12.33-7.12s.044-.057.029-.086c-.014-.029-.057-.043-.086-.029zM157.962 149.002l-12.273 7.09v.144l12.33-7.119s.044-.058.029-.086c-.014-.029-.057-.044-.086-.029zM170.696 138.986l-12.273 7.09v.144l12.33-7.119s.043-.058.029-.087c-.014-.028-.058-.043-.086-.028zM170.696 139.865l-12.273 7.09v.144l12.33-7.119s.043-.058.029-.086c-.014-.029-.058-.044-.086-.029zM170.696 140.758l-12.273 7.091v.144l12.33-7.119s.043-.058.029-.087c-.014-.029-.058-.043-.086-.029zM170.696 141.637l-12.273 7.091v.144l12.33-7.119s.043-.058.029-.087c-.014-.029-.058-.043-.086-.029zM183.429 131.665l-12.273 7.09v.144l12.331-7.119s.043-.058.029-.087c-.015-.028-.058-.043-.087-.028zM183.429 132.558l-12.273 7.091v.144l12.331-7.12s.043-.057.029-.086a.07.07 0 0 0-.087-.029zM183.429 133.437l-12.273 7.091v.144l12.331-7.12s.043-.057.029-.086a.07.07 0 0 0-.087-.029zM183.429 134.331l-12.273 7.09v.144l12.331-7.119s.043-.058.029-.086c-.015-.029-.058-.044-.087-.029zM196.149 124.358l-12.273 7.09v.144l12.33-7.119s.043-.058.029-.086c-.014-.029-.058-.044-.086-.029zM196.149 125.237l-12.273 7.09v.145l12.33-7.12s.043-.057.029-.086c-.014-.029-.058-.043-.086-.029zM196.149 126.13l-12.273 7.091v.144l12.33-7.119s.043-.058.029-.087c-.014-.029-.058-.043-.086-.029zM196.149 127.01l-12.273 7.09v.144l12.33-7.119s.043-.058.029-.087c-.014-.028-.058-.043-.086-.028zM208.882 116.95l-12.273 7.091v.144l12.331-7.119s.043-.058.029-.087c-.015-.029-.058-.043-.087-.029zM208.882 117.844l-12.273 7.09v.144l12.331-7.119s.043-.058.029-.086c-.015-.029-.058-.044-.087-.029zM208.882 118.723l-12.273 7.09v.144l12.331-7.119s.043-.058.029-.086c-.015-.029-.058-.044-.087-.029zM208.882 119.616l-12.273 7.091v.144l12.331-7.119s.043-.058.029-.087c-.015-.029-.058-.043-.087-.029zM221.616 109.543l-12.273 7.09v.144l12.331-7.119s.043-.058.028-.086c-.014-.029-.057-.044-.086-.029zM221.616 110.436l-12.273 7.091v.144l12.331-7.119s.043-.058.028-.087c-.014-.029-.057-.043-.086-.029zM221.616 111.33l-12.273 7.09v.144l12.331-7.119s.043-.058.028-.086c-.014-.029-.057-.044-.086-.029zM221.616 112.209l-12.273 7.09v.145l12.331-7.12s.043-.057.028-.086c-.014-.029-.057-.044-.086-.029zM234.35 102.207l-12.273 7.091v.144l12.33-7.12s.044-.057.029-.086c-.014-.029-.057-.043-.086-.029zM234.35 103.101l-12.273 7.09v.144l12.33-7.119s.044-.058.029-.086c-.014-.029-.057-.044-.086-.029zM234.35 103.98l-12.273 7.09v.144l12.33-7.119s.044-.058.029-.086c-.014-.029-.057-.044-.086-.029zM234.35 104.873l-12.273 7.091v.144l12.33-7.119s.044-.058.029-.087c-.014-.029-.057-.043-.086-.029zM247.184 94.828l-12.388 7.149v.144l12.446-7.192s.043-.057.029-.086c-.015-.029-.058-.043-.087-.029v.014zM247.184 95.708l-12.388 7.148V103l12.446-7.192s.043-.057.029-.086c-.015-.029-.058-.043-.087-.029v.015zM247.184 96.601l-12.388 7.148v.144l12.446-7.191s.043-.058.029-.087c-.015-.028-.058-.043-.087-.028v.014zM247.184 97.48l-12.388 7.148v.144l12.446-7.191s.043-.058.029-.086c-.015-.03-.058-.044-.087-.03v.015zM260.077 87.349l-12.403 7.162v.145l12.475-7.206s.043-.058.028-.087c-.014-.029-.057-.043-.086-.029l-.014.015zM260.077 88.242l-12.403 7.163v.144l12.475-7.206s.043-.057.028-.086c-.014-.03-.057-.044-.086-.03l-.014.015zM260.077 89.121l-12.403 7.163v.144l12.475-7.206s.043-.057.028-.086c-.014-.029-.057-.043-.086-.029l-.014.014zM260.077 90.015l-12.403 7.162v.145l12.475-7.206s.043-.058.028-.087c-.014-.028-.057-.043-.086-.028l-.014.014zM275.259 78.601l-14.678 8.474v.144l14.75-8.517s.043-.058.029-.087c-.014-.028-.058-.043-.087-.028l-.014.014zM275.259 79.48l-14.678 8.474v.144l14.75-8.517s.043-.058.029-.086c-.014-.03-.058-.044-.087-.03l-.014.015zM275.259 80.374l-14.678 8.474v.144l14.75-8.517s.043-.058.029-.087c-.014-.029-.058-.043-.087-.029l-.014.015zM275.259 81.253l-14.678 8.474v.144l14.75-8.517s.043-.058.029-.087c-.014-.029-.058-.043-.087-.029l-.014.015z" fill="#696969"/>
        <path d="m556.986 142.07.259.144-.259.158-.274-.158.274-.144z" fill="#F2F2F2"/>
        <path d="M556.986 142.372v4.468l-.274-.159v-4.467l.274.158z" fill="#D9D9D9"/>
        <path d="M557.245 142.214v4.251l-.259.375v-4.468l.259-.158z" fill="#CCC"/>
        <path d="m556.928 144.75-10.213 14.34-.144-.029 10.256-14.397s.058-.029.087 0c.029.029.029.057 0 .086h.014zM556.885 145.701l-10.213 14.34-.144-.029 10.256-14.397s.058-.029.087 0c.028.029.028.058 0 .086h.014zM556.827 146.581l-10.212 14.339-.145-.029 10.257-14.397s.057-.029.086 0c.029.029.029.058 0 .087h.014z" fill="#696969"/>
        <path d="m546.629 157.995.259.158-.259.144-.274-.144.274-.158z" fill="#F2F2F2"/>
        <path d="M546.629 158.297v3.2l-.274-.159v-3.185l.274.144z" fill="#D9D9D9"/>
        <path d="M546.888 158.153v2.954l-.259.39v-3.2l.259-.144z" fill="#CCC"/>
        <path d="m546.557 159.493-10.516 14.859-.144-.029 10.559-14.916s.058-.029.086 0c.029.029.029.057 0 .086h.015zM546.514 160.445l-10.516 14.858-.144-.029 10.559-14.916s.057-.029.086 0c.029.029.029.058 0 .087h.015zM546.456 161.324l-10.515 14.858-.144-.029 10.558-14.916s.058-.029.087 0c.028.029.028.058 0 .087h.014z" fill="#696969"/>
        <path d="m535.725 173.055.273.158-.273.144-.26-.144.26-.158z" fill="#F2F2F2"/>
        <path d="M535.725 173.357v4.252l-.26-.159v-4.237l.26.144z" fill="#D9D9D9"/>
        <path d="M535.998 173.213v4.237l-.273.159v-4.252l.273-.144z" fill="#CCC"/>
        <path d="m533.319 174.438.259.159-.259.158-.274-.158.274-.159z" fill="#F2F2F2"/>
        <path d="M533.319 174.755v4.237l-.274-.158v-4.237l.274.158z" fill="#D9D9D9"/>
        <path d="M533.578 174.597v4.237l-.259.158v-4.237l.259-.158z" fill="#CCC"/>
        <path d="m520.585 167.045.274.159-.274.158-.273-.158.273-.159z" fill="#F2F2F2"/>
        <path d="M520.585 167.362v4.237l-.273-.158v-4.237l.273.158z" fill="#D9D9D9"/>
        <path d="M520.859 167.204v4.237l-.274.158v-4.237l.274-.158z" fill="#CCC"/>
        <path d="m507.851 159.738.274.159-.274.144-.259-.144.259-.159z" fill="#F2F2F2"/>
        <path d="M507.851 160.041v4.252l-.259-.159v-4.237l.259.144z" fill="#D9D9D9"/>
        <path d="M508.125 159.897v4.237l-.274.159v-4.252l.274-.144z" fill="#CCC"/>
        <path d="m495.132 152.388.259.145-.259.158-.274-.158.274-.145z" fill="#F2F2F2"/>
        <path d="M495.132 152.691v4.237l-.274-.144v-4.251l.274.158z" fill="#D9D9D9"/>
        <path d="M495.391 152.533v4.251l-.259.144v-4.237l.259-.158z" fill="#CCC"/>
        <path d="m482.398 145.024.26.159-.26.144-.273-.144.273-.159z" fill="#F2F2F2"/>
        <path d="M482.398 145.327v4.237l-.273-.144v-4.237l.273.144z" fill="#D9D9D9"/>
        <path d="M482.658 145.183v4.237l-.26.144v-4.237l.26-.144z" fill="#CCC"/>
        <path d="m469.665 137.66.273.158-.273.159-.26-.159.26-.158z" fill="#F2F2F2"/>
        <path d="M469.665 137.977v4.237l-.26-.159v-4.237l.26.159z" fill="#D9D9D9"/>
        <path d="M469.938 137.818v4.237l-.273.159v-4.237l.273-.159z" fill="#CCC"/>
        <path d="m456.931 130.31.274.158-.274.144-.259-.144.259-.158z" fill="#F2F2F2"/>
        <path d="M456.931 130.612v4.252l-.259-.159v-4.237l.259.144z" fill="#D9D9D9"/>
        <path d="M457.205 130.468v4.237l-.274.159v-4.252l.274-.144z" fill="#CCC"/>
        <path d="m444.212 122.974.259.144-.259.159-.274-.159.274-.144z" fill="#F2F2F2"/>
        <path d="M444.212 123.277v4.237l-.274-.158v-4.237l.274.158z" fill="#D9D9D9"/>
        <path d="M444.471 123.119v4.237l-.259.158v-4.237l.259-.158z" fill="#CCC"/>
        <path d="m431.478 115.624.274.159-.274.144-.274-.144.274-.159z" fill="#F2F2F2"/>
        <path d="M431.478 115.927v4.237l-.274-.144v-4.237l.274.144z" fill="#D9D9D9"/>
        <path d="M431.752 115.783v4.237l-.274.144v-4.237l.274-.144z" fill="#CCC"/>
        <path d="m418.744 108.26.274.159-.274.144-.259-.144.259-.159z" fill="#F2F2F2"/>
        <path d="M418.744 108.563v4.237l-.259-.144v-4.237l.259.144z" fill="#D9D9D9"/>
        <path d="M419.018 108.419v4.237l-.274.144v-4.237l.274-.144z" fill="#CCC"/>
        <path d="m406.025 100.91.259.159-.259.158-.274-.158.274-.159z" fill="#F2F2F2"/>
        <path d="M406.025 101.227v4.237l-.274-.158v-4.237l.274.158z" fill="#D9D9D9"/>
        <path d="M406.284 101.069v4.237l-.259.158v-4.237l.259-.158z" fill="#CCC"/>
        <path d="m393.161 93.488.26.144-.26.159-.273-.159.273-.144z" fill="#F2F2F2"/>
        <path d="M393.161 93.79v4.238l-.273-.159v-4.237l.273.159z" fill="#D9D9D9"/>
        <path d="M393.421 93.632v4.237l-.26.159V93.79l.26-.159z" fill="#CCC"/>
        <path d="m380.255 86.037.259.144-.259.159-.274-.159.274-.144z" fill="#F2F2F2"/>
        <path d="M380.255 86.34v4.237l-.274-.159v-4.237l.274.159z" fill="#D9D9D9"/>
        <path d="M380.514 86.181v4.237l-.259.16V86.34l.259-.159z" fill="#CCC"/>
        <path d="m365.101 77.275.274.159-.274.158-.259-.158.259-.159z" fill="#F2F2F2"/>
        <path d="M365.101 77.592v4.237l-.259-.158v-4.237l.259.158z" fill="#D9D9D9"/>
        <path d="M365.375 77.434v4.237l-.274.158v-4.237l.274-.158z" fill="#CCC"/>
        <path d="m520.772 168.4 12.273 7.09v.144l-12.33-7.119s-.043-.058-.029-.086c.014-.029.058-.044.086-.029zM520.772 169.293l12.273 7.091v.144l-12.33-7.119s-.043-.058-.029-.087c.014-.029.058-.043.086-.029zM520.772 170.187l12.273 7.09v.144l-12.33-7.119s-.043-.058-.029-.086c.014-.029.058-.044.086-.029zM520.772 171.066l12.273 7.09v.144l-12.33-7.119s-.043-.058-.029-.086c.014-.029.058-.044.086-.029zM535.494 174.409l-1.916 1.096v.144l1.974-1.139s.043-.057.028-.086c-.014-.029-.057-.043-.086-.029v.014zM535.494 175.303l-1.916 1.095v.144l1.974-1.138s.043-.058.028-.087c-.014-.029-.057-.043-.086-.029v.015zM535.494 176.196l-1.916 1.096v.144l1.974-1.139s.043-.057.028-.086c-.014-.029-.057-.043-.086-.029v.014zM535.494 177.075l-1.916 1.096v.144l1.974-1.139s.043-.057.028-.086c-.014-.029-.057-.043-.086-.029v.014zM508.053 161.035l12.273 7.091v.144l-12.33-7.119s-.044-.058-.029-.087c.014-.029.057-.043.086-.029zM508.053 161.929l12.273 7.091v.144l-12.33-7.12s-.044-.057-.029-.086c.014-.029.057-.043.086-.029zM508.053 162.808l12.273 7.091v.144l-12.33-7.12s-.044-.057-.029-.086c.014-.029.057-.043.086-.029zM508.053 163.702l12.273 7.09v.144l-12.33-7.119s-.044-.058-.029-.087c.014-.028.057-.043.086-.028zM495.319 153.685l12.273 7.091v.144l-12.33-7.119s-.043-.058-.029-.087c.014-.029.058-.043.086-.029zM495.319 154.565l12.273 7.09v.144l-12.33-7.119s-.043-.058-.029-.087c.014-.028.058-.043.086-.028zM495.319 155.458l12.273 7.091v.144l-12.33-7.12s-.043-.057-.029-.086c.014-.029.058-.043.086-.029zM495.319 156.337l12.273 7.091v.144l-12.33-7.12s-.043-.057-.029-.086c.014-.029.058-.043.086-.029zM482.586 146.336l12.272 7.09v.144l-12.33-7.119s-.043-.058-.029-.087c.015-.028.058-.043.087-.028zM482.586 147.229l12.272 7.091v.144l-12.33-7.12s-.043-.057-.029-.086a.07.07 0 0 1 .087-.029zM482.586 148.108l12.272 7.091v.144l-12.33-7.12s-.043-.057-.029-.086a.07.07 0 0 1 .087-.029zM482.586 149.002l12.272 7.09v.144l-12.33-7.119s-.043-.058-.029-.086c.015-.029.058-.044.087-.029zM469.852 138.986l12.273 7.09v.144l-12.331-7.119s-.043-.058-.028-.087c.014-.028.057-.043.086-.028zM469.852 139.865l12.273 7.09v.144l-12.331-7.119s-.043-.058-.028-.086c.014-.029.057-.044.086-.029zM469.852 140.758l12.273 7.091v.144l-12.331-7.119s-.043-.058-.028-.087c.014-.029.057-.043.086-.029zM469.852 141.637l12.273 7.091v.144l-12.331-7.119s-.043-.058-.028-.087c.014-.029.057-.043.086-.029zM457.133 131.665l12.272 7.09v.144l-12.33-7.119s-.043-.058-.029-.087c.015-.028.058-.043.087-.028zM457.133 132.558l12.272 7.091v.144l-12.33-7.12s-.043-.057-.029-.086a.07.07 0 0 1 .087-.029zM457.133 133.437l12.272 7.091v.144l-12.33-7.12s-.043-.057-.029-.086a.07.07 0 0 1 .087-.029zM457.133 134.331l12.272 7.09v.144l-12.33-7.119s-.043-.058-.029-.086c.015-.029.058-.044.087-.029zM444.399 124.358l12.273 7.09v.144l-12.331-7.119s-.043-.058-.029-.086c.015-.029.058-.044.087-.029zM444.399 125.237l12.273 7.09v.145l-12.331-7.12s-.043-.057-.029-.086a.07.07 0 0 1 .087-.029zM444.399 126.13l12.273 7.091v.144l-12.331-7.119s-.043-.058-.029-.087a.07.07 0 0 1 .087-.029zM444.399 127.01l12.273 7.09v.144l-12.331-7.119s-.043-.058-.029-.087c.015-.028.058-.043.087-.028zM431.665 116.95l12.273 7.091v.144l-12.33-7.119s-.044-.058-.029-.087c.014-.029.057-.043.086-.029zM431.665 117.844l12.273 7.09v.144l-12.33-7.119s-.044-.058-.029-.086c.014-.029.057-.044.086-.029zM431.665 118.723l12.273 7.09v.144l-12.33-7.119s-.044-.058-.029-.086c.014-.029.057-.044.086-.029zM431.665 119.616l12.273 7.091v.144l-12.33-7.119s-.044-.058-.029-.087c.014-.029.057-.043.086-.029zM418.946 109.543l12.273 7.09v.144l-12.331-7.119s-.043-.058-.029-.086c.015-.029.058-.044.087-.029zM418.946 110.436l12.273 7.091v.144l-12.331-7.119s-.043-.058-.029-.087a.07.07 0 0 1 .087-.029zM418.946 111.33l12.273 7.09v.144l-12.331-7.119s-.043-.058-.029-.086c.015-.029.058-.044.087-.029zM418.946 112.209l12.273 7.09v.145l-12.331-7.12s-.043-.057-.029-.086c.015-.029.058-.044.087-.029zM406.212 102.207l12.273 7.091v.144l-12.331-7.12s-.043-.057-.028-.086c.014-.029.057-.043.086-.029zM406.212 103.101l12.273 7.09v.144l-12.331-7.119s-.043-.058-.028-.086c.014-.029.057-.044.086-.029zM406.212 103.98l12.273 7.09v.144l-12.331-7.119s-.043-.058-.028-.086c.014-.029.057-.044.086-.029zM406.212 104.873l12.273 7.091v.144l-12.331-7.119s-.043-.058-.028-.087c.014-.029.057-.043.086-.029zM393.363 94.828l12.388 7.149v.144l-12.46-7.192s-.043-.057-.029-.086c.015-.029.058-.043.087-.029l.014.014zM393.363 95.708l12.388 7.148V103l-12.46-7.192s-.043-.057-.029-.086c.015-.029.058-.043.087-.029l.014.015zM393.363 96.601l12.388 7.148v.144l-12.46-7.191s-.043-.058-.029-.087c.015-.028.058-.043.087-.028l.014.014zM393.363 97.48l12.388 7.148v.144l-12.46-7.191s-.043-.058-.029-.086c.015-.03.058-.044.087-.03l.014.015zM380.471 87.349l12.417 7.162v.145l-12.475-7.206s-.043-.058-.029-.087c.015-.029.058-.043.087-.029v.015zM380.471 88.242l12.417 7.163v.144l-12.475-7.206s-.043-.057-.029-.086c.015-.03.058-.044.087-.03v.015zM380.471 89.121l12.417 7.163v.144l-12.475-7.206s-.043-.057-.029-.086c.015-.029.058-.043.087-.029v.014zM380.471 90.015l12.417 7.162v.145l-12.475-7.206s-.043-.058-.029-.087c.015-.028.058-.043.087-.028v.014zM365.288 78.601l14.679 8.474v.144l-14.751-8.517s-.043-.058-.028-.087c.014-.028.057-.043.086-.028l.014.014zM365.288 79.48l14.679 8.474v.144l-14.751-8.517s-.043-.058-.028-.086c.014-.03.057-.044.086-.03l.014.015zM365.288 80.374l14.679 8.474v.144l-14.751-8.517s-.043-.058-.028-.087c.014-.029.057-.043.086-.029l.014.015zM365.288 81.253l14.679 8.474v.144l-14.751-8.517s-.043-.058-.028-.087c.014-.029.057-.043.086-.029l.014.015z" fill="#696969"/>
        <path d="m557.13 137.199-23.782 13.734-168.564-97.336 1.743-2.09 3.4-5.793 166.086 95.967 14.505-8.374 6.612 3.892z" fill="#8279F2"/>
        <path d="m557.288 118.391-21.261 30.077-169.5-97.998 21.261-30.02 169.5 97.941z" fill="#9AF0F0"/>
        <path d="m383.986 20.479 175.492 101.415M381.883 23.491l175.492 101.414M379.779 26.503l175.493 101.4M377.676 29.5l175.507 101.415M375.573 32.513 551.08 133.927M373.47 35.525l175.507 101.4M371.367 38.537l175.507 101.4M369.278 41.534 544.771 142.95M367.175 44.546l175.493 101.4M365.072 47.558l175.492 101.4" stroke="#6FC9C7" stroke-width=".29" stroke-miterlimit="10"/>
        <path d="M366.527 50.47v1.037l169.5 97.913v-.98l-169.5-97.97z" fill="#5CB7B3"/>
        <path d="m536.027 148.468 21.261-12.264v-17.769l-21.261 30.033z" fill="#5AAFAB"/>
        <path d="M536.027 148.468v.937l21.261-12.279v-.922l-21.261 12.264z" fill="#969696"/>
        <path d="M533.348 150.933v1.21L364.871 54.822v-1.21l168.477 97.321z" fill="#544AA3"/>
        <path d="m533.348 152.143 23.94-13.835v-1.182l-23.94 13.807v1.21z" fill="#7A7A7A"/>
        <path d="m275.749 53.611 89.122-.057 1.656-2.047-92.896-.504 2.118 2.608z" fill="#8279F2"/>
        <path d="M366.527 50.47h-92.464v1.037h92.464V50.47z" fill="#7AD3D1"/>
        <path d="m83.46 137.199 23.783 13.734 168.563-97.38-1.743-2.046-3.399-5.793-166.086 95.967-14.505-8.374-6.612 3.892z" fill="#8279F2"/>
        <path d="m83.302 118.391 21.262 30.077 169.499-97.94-21.261-30.078-169.5 97.941z" fill="#9AF0F0"/>
        <path d="M256.605 20.48 81.113 121.893M258.708 23.491 83.216 124.905M260.811 26.503l-175.506 101.4M262.914 29.5 87.408 130.916M265.017 32.513 89.511 133.927M267.106 35.525l-175.492 101.4M269.209 38.537l-175.492 101.4M271.312 41.534 95.82 142.95M273.415 44.546l-175.492 101.4M275.518 47.558l-175.492 101.4" stroke="#6FC9C7" stroke-width=".29" stroke-miterlimit="10"/>
        <path d="M274.063 50.527v.98L104.564 149.42v-.98l169.499-97.913z" fill="#5CB7B3"/>
        <path d="m104.564 148.468-21.262-12.264v-17.769l21.262 30.033zM104.564 148.468v.937l-21.262-12.279v-.922l21.262 12.264z" fill="#5AAFAB"/>
        <path d="M107.243 150.933v1.21l168.463-97.321v-1.21l-168.463 97.321z" fill="#544AA3"/>
        <path d="m107.243 152.143-23.94-13.835v-1.182l23.94 13.807v1.21z" fill="#5C50AD"/>
        <path d="M364.871 53.554h-89.165v1.268h89.165v-1.268z" fill="#6C5ABA"/>
        <path d="M252.802 20.45h134.986l-21.261 30.02-92.463.057-21.262-30.077z" fill="#9AF0F0"/>
        <path d="M252.802 22.006h134.986M252.802 25.004h134.986M252.802 28.002h134.986M252.802 30.985h134.986M252.802 33.983h134.986M252.802 36.98h134.986M252.802 39.978h134.986M252.802 42.975h134.986M252.802 45.973h134.986M252.802 48.97h134.986" stroke="#6FC9C7" stroke-width=".29" stroke-miterlimit="10"/>
        <path d="m83.562 114.01-.26.144.26.159.273-.159-.273-.144z" fill="#F2F2F2"/>
        <path d="M83.562 114.313v4.468l.273-.159v-4.468l-.273.159z" fill="#D9D9D9"/>
        <path d="M83.302 114.154v4.252l.26.375v-4.468l-.26-.159z" fill="#CCC"/>
        <path d="m83.62 116.691 10.212 14.339.144-.028-10.256-14.398s-.058-.028-.086 0c-.03.029-.03.058 0 .087h-.015zM83.677 117.642l10.213 14.34.144-.029-10.256-14.397s-.058-.029-.087 0c-.029.028-.029.057 0 .086h-.014zM83.72 118.521l10.213 14.34.144-.029-10.256-14.397s-.058-.029-.087 0c-.028.029-.028.057 0 .086h-.014z" fill="#696969"/>
        <path d="m93.933 129.935-.274.159.274.144.26-.144-.26-.159z" fill="#F2F2F2"/>
        <path d="M93.933 130.238v3.199l.26-.158v-3.185l-.26.144z" fill="#D9D9D9"/>
        <path d="M93.66 130.094v2.954l.273.389v-3.199l-.274-.144z" fill="#CCC"/>
        <path d="m93.99 131.434 10.516 14.858.144-.029-10.559-14.916s-.057-.028-.086 0c-.029.029-.029.058 0 .087h-.014zM94.048 132.385l10.516 14.858.144-.028-10.559-14.916s-.058-.029-.086 0c-.03.028-.03.057 0 .086h-.015zM94.091 133.264l10.516 14.859.144-.029-10.559-14.916s-.057-.029-.086 0c-.029.029-.029.057 0 .086h-.015z" fill="#696969"/>
        <path d="m104.823 144.995-.259.159.259.144.274-.144-.274-.159z" fill="#F2F2F2"/>
        <path d="M104.823 145.298v4.251l.274-.158v-4.237l-.274.144z" fill="#D9D9D9"/>
        <path d="M104.564 145.154v4.237l.259.158v-4.251l-.259-.144z" fill="#CCC"/>
        <path d="m107.243 146.379-.274.158.274.159.259-.159-.259-.158z" fill="#F2F2F2"/>
        <path d="M107.243 146.696v4.237l.259-.159v-4.237l-.259.159z" fill="#D9D9D9"/>
        <path d="M106.969 146.537v4.237l.274.159v-4.237l-.274-.159z" fill="#CCC"/>
        <path d="m119.962 138.986-.259.158.259.159.274-.159-.274-.158z" fill="#F2F2F2"/>
        <path d="M119.962 139.303v4.237l.274-.159v-4.237l-.274.159z" fill="#D9D9D9"/>
        <path d="M119.703 139.144v4.237l.259.159v-4.237l-.259-.159z" fill="#CCC"/>
        <path d="m132.696 131.679-.274.158.274.145.274-.145-.274-.158z" fill="#F2F2F2"/>
        <path d="M132.696 131.982v4.251l.274-.158v-4.237l-.274.144z" fill="#D9D9D9"/>
        <path d="M132.422 131.838v4.237l.274.158v-4.251l-.274-.144z" fill="#CCC"/>
        <path d="m145.43 124.329-.274.159.274.144.259-.144-.259-.159z" fill="#F2F2F2"/>
        <path d="M145.43 124.632v4.237l.259-.144v-4.237l-.259.144z" fill="#D9D9D9"/>
        <path d="M145.156 124.488v4.237l.274.144v-4.237l-.274-.144z" fill="#CCC"/>
        <path d="m158.149 116.965-.259.158.259.144.274-.144-.274-.158z" fill="#F2F2F2"/>
        <path d="M158.149 117.267v4.237l.274-.144v-4.237l-.274.144z" fill="#D9D9D9"/>
        <path d="M157.89 117.123v4.237l.259.144v-4.237l-.259-.144z" fill="#CCC"/>
        <path d="m170.883 109.6-.26.159.26.158.273-.158-.273-.159z" fill="#F2F2F2"/>
        <path d="M170.883 109.917v4.237l.273-.158v-4.237l-.273.158z" fill="#D9D9D9"/>
        <path d="M170.623 109.759v4.237l.26.158v-4.237l-.26-.158z" fill="#CCC"/>
        <path d="m183.616 102.25-.273.159.273.144.26-.144-.26-.159z" fill="#F2F2F2"/>
        <path d="M183.616 102.553v4.251l.26-.158v-4.237l-.26.144z" fill="#D9D9D9"/>
        <path d="M183.343 102.409v4.237l.273.158v-4.251l-.273-.144z" fill="#CCC"/>
        <path d="m196.35 94.915-.273.144.273.159.26-.159-.26-.144z" fill="#F2F2F2"/>
        <path d="M196.35 95.218v4.237l.26-.159V95.06l-.26.159z" fill="#D9D9D9"/>
        <path d="M196.077 95.06v4.236l.273.159v-4.237l-.273-.159z" fill="#CCC"/>
        <path d="m209.07 87.565-.26.159.26.144.273-.144-.273-.16z" fill="#F2F2F2"/>
        <path d="M209.07 87.868v4.237l.273-.145v-4.236l-.273.144z" fill="#D9D9D9"/>
        <path d="M208.81 87.724v4.236l.26.145v-4.237l-.26-.144z" fill="#CCC"/>
        <path d="m221.803 80.2-.259.16.259.143.274-.144-.274-.158z" fill="#F2F2F2"/>
        <path d="M221.803 80.503v4.252l.274-.159V80.36l-.274.144z" fill="#D9D9D9"/>
        <path d="M221.544 80.36v4.236l.259.159v-4.252l-.259-.144z" fill="#CCC"/>
        <path d="m234.537 72.85-.274.16.274.158.259-.159-.259-.158z" fill="#F2F2F2"/>
        <path d="M234.537 73.168v4.237l.259-.159V73.01l-.259.159z" fill="#D9D9D9"/>
        <path d="M234.263 73.01v4.236l.274.159v-4.237l-.274-.159z" fill="#CCC"/>
        <path d="m247.4 65.429-.273.144.273.158.26-.158-.26-.144z" fill="#F2F2F2"/>
        <path d="M247.4 65.731v4.237l.26-.158v-4.237l-.26.158z" fill="#D9D9D9"/>
        <path d="M247.127 65.573v4.237l.273.158v-4.237l-.273-.158z" fill="#CCC"/>
        <path d="m260.307 57.978-.274.144.274.159.259-.159-.259-.144z" fill="#F2F2F2"/>
        <path d="M260.307 58.28v4.238l.259-.159v-4.237l-.259.159z" fill="#D9D9D9"/>
        <path d="M260.033 58.122v4.237l.274.159V58.28l-.274-.159z" fill="#CCC"/>
        <path d="m275.446 49.216-.273.158.273.159.26-.159-.26-.158z" fill="#F2F2F2"/>
        <path d="M275.446 49.533v4.237l.26-.159v-4.237l-.26.159z" fill="#D9D9D9"/>
        <path d="M275.173 49.374v4.237l.273.159v-4.237l-.273-.159z" fill="#CCC"/>
        <path d="M293.467 49.374h-.303v4.237h.303v-4.236z" fill="#D9D9D9"/>
        <path d="M293.423 49.33h-.201l-.058.044h.302l-.043-.043z" fill="#F2F2F2"/>
        <path d="M311.429 49.374h-.302v4.237h.302v-4.236z" fill="#D9D9D9"/>
        <path d="M311.371 49.33h-.201l-.043.044h.287l-.043-.043z" fill="#F2F2F2"/>
        <path d="M329.377 49.374h-.302v4.237h.302v-4.236z" fill="#D9D9D9"/>
        <path d="M329.333 49.33h-.201l-.057.044h.302l-.044-.043z" fill="#F2F2F2"/>
        <path d="M347.34 49.374h-.302v4.237h.302v-4.236z" fill="#D9D9D9"/>
        <path d="M347.282 49.33h-.201l-.043.044h.301l-.057-.043z" fill="#F2F2F2"/>
        <path d="M365.303 49.374H365v4.237h.303v-4.236z" fill="#D9D9D9"/>
        <path d="M365.244 49.33h-.201l-.043.044h.287l-.043-.043z" fill="#F2F2F2"/>
        <path d="M293.164 50.556h-17.458v.115h17.458v-.115zM293.164 51.45h-17.458v.115h17.458v-.115zM293.164 52.343h-17.458v.115h17.458v-.115zM293.164 53.237h-17.458v.115h17.458v-.115zM311.127 50.556h-17.66v.115h17.66v-.115zM311.127 51.45h-17.66v.115h17.66v-.115zM311.127 52.343h-17.66v.115h17.66v-.115zM311.127 53.237h-17.66v.115h17.66v-.115zM329.075 50.556h-17.66v.115h17.66v-.115zM329.075 51.45h-17.66v.115h17.66v-.115zM329.075 52.343h-17.66v.115h17.66v-.115zM329.075 53.237h-17.66v.115h17.66v-.115zM347.038 50.556h-17.661v.115h17.661v-.115zM347.038 51.45h-17.661v.115h17.661v-.115zM347.038 52.343h-17.661v.115h17.661v-.115zM347.038 53.237h-17.661v.115h17.661v-.115zM365 50.556h-17.66v.115H365v-.115zM365 51.45h-17.66v.115H365v-.115zM365 52.343h-17.66v.115H365v-.115zM365 53.237h-17.66v.115H365v-.115zM119.775 140.355l-12.273 7.09v.144l12.331-7.119s.043-.058.028-.087c-.014-.028-.057-.043-.086-.028zM119.775 141.234l-12.273 7.09v.144l12.331-7.119s.043-.058.028-.086c-.014-.029-.057-.044-.086-.029zM119.775 142.127l-12.273 7.091v.144l12.331-7.119s.043-.058.028-.087c-.014-.029-.057-.043-.086-.029zM119.775 143.006l-12.273 7.091v.144l12.331-7.119s.043-.058.028-.087c-.014-.029-.057-.043-.086-.029zM105.053 146.35l1.916 1.095v.144l-1.973-1.138s-.043-.058-.029-.087c.014-.029.058-.043.086-.029v.015zM105.053 147.243l1.916 1.096v.144l-1.973-1.139s-.043-.057-.029-.086c.014-.029.058-.043.086-.029v.014zM105.053 148.137l1.916 1.095v.144l-1.973-1.138s-.043-.058-.029-.087c.014-.029.058-.043.086-.029v.015zM105.053 149.016l1.916 1.095v.144l-1.973-1.138s-.043-.058-.029-.087c.014-.028.058-.043.086-.028v.014zM132.509 132.976l-12.273 7.091v.144l12.33-7.12s.044-.057.029-.086c-.014-.029-.058-.043-.086-.029zM132.509 133.87l-12.273 7.09v.144l12.33-7.119s.044-.058.029-.087c-.014-.028-.058-.043-.086-.028zM132.509 134.749l-12.273 7.09v.144l12.33-7.119s.044-.058.029-.087c-.014-.028-.058-.043-.086-.028zM132.509 135.642l-12.273 7.091v.144l12.33-7.12s.044-.057.029-.086c-.014-.029-.058-.043-.086-.029zM145.228 125.626l-12.273 7.091v.144l12.331-7.12s.043-.057.028-.086c-.014-.029-.057-.043-.086-.029zM145.228 126.505l-12.273 7.091v.144l12.331-7.12s.043-.057.028-.086c-.014-.029-.057-.043-.086-.029zM145.228 127.399l-12.273 7.09v.144l12.331-7.119s.043-.058.028-.087c-.014-.028-.057-.043-.086-.028zM145.228 128.278l-12.273 7.09v.144l12.331-7.119s.043-.058.028-.086c-.014-.029-.057-.044-.086-.029zM157.962 118.276l-12.273 7.091v.144l12.33-7.12s.044-.057.029-.086c-.014-.029-.057-.043-.086-.029zM157.962 119.17l-12.273 7.09v.144l12.33-7.119s.044-.058.029-.086c-.014-.029-.057-.044-.086-.029zM157.962 120.049l-12.273 7.09v.144l12.33-7.119s.044-.058.029-.086c-.014-.029-.057-.044-.086-.029zM157.962 120.942l-12.273 7.091v.144l12.33-7.119s.044-.058.029-.087c-.014-.029-.057-.043-.086-.029zM170.696 110.926l-12.273 7.091v.144l12.33-7.12s.043-.057.029-.086c-.014-.029-.058-.043-.086-.029zM170.696 111.805l-12.273 7.091v.144l12.33-7.119s.043-.058.029-.087c-.014-.029-.058-.043-.086-.029zM170.696 112.699l-12.273 7.09v.144l12.33-7.119s.043-.058.029-.086c-.014-.029-.058-.044-.086-.029zM170.696 113.578l-12.273 7.09v.145l12.33-7.12s.043-.057.029-.086c-.014-.029-.058-.043-.086-.029zM183.429 103.605l-12.273 7.091v.144l12.331-7.12s.043-.057.029-.086a.07.07 0 0 0-.087-.029zM183.429 104.499l-12.273 7.09v.144l12.331-7.119s.043-.058.029-.086c-.015-.029-.058-.044-.087-.029zM183.429 105.378l-12.273 7.09v.144l12.331-7.119s.043-.058.029-.086c-.015-.029-.058-.044-.087-.029zM183.429 106.271l-12.273 7.091v.144l12.331-7.119s.043-.058.029-.087c-.015-.029-.058-.043-.087-.029zM196.149 96.298l-12.273 7.091v.144l12.33-7.12s.043-.057.029-.086c-.014-.029-.058-.043-.086-.029zM196.149 97.177l-12.273 7.091v.144l12.33-7.12s.043-.057.029-.086c-.014-.029-.058-.043-.086-.029zM196.149 98.071l-12.273 7.09v.145l12.33-7.12s.043-.057.029-.086c-.014-.029-.058-.043-.086-.029zM196.149 98.95l-12.273 7.091v.144l12.33-7.12s.043-.057.029-.086c-.014-.029-.058-.043-.086-.029zM208.882 88.89l-12.273 7.091v.144l12.331-7.119s.043-.058.029-.086c-.015-.03-.058-.044-.087-.03zM208.882 89.784l-12.273 7.09v.145l12.331-7.12s.043-.057.029-.086c-.015-.029-.058-.043-.087-.029zM208.882 90.663l-12.273 7.09v.145l12.331-7.12s.043-.057.029-.086c-.015-.029-.058-.043-.087-.029zM208.882 91.557l-12.273 7.09v.145l12.331-7.12s.043-.057.029-.086c-.015-.03-.058-.043-.087-.03zM221.616 81.483l-12.273 7.09v.145l12.331-7.12s.043-.057.028-.086c-.014-.029-.057-.043-.086-.029zM221.616 82.377l-12.273 7.09v.145l12.331-7.12s.043-.058.028-.086c-.014-.03-.057-.044-.086-.03zM221.616 83.27l-12.273 7.09v.145l12.331-7.12s.043-.057.028-.086c-.014-.029-.057-.043-.086-.029zM221.616 84.15l-12.273 7.09v.144l12.331-7.12s.043-.057.028-.086c-.014-.028-.057-.043-.086-.028zM234.35 74.148l-12.273 7.09v.144l12.33-7.119s.044-.058.029-.086c-.014-.03-.057-.044-.086-.03zM234.35 75.041l-12.273 7.09v.145l12.33-7.12s.044-.057.029-.086c-.014-.029-.057-.043-.086-.029zM234.35 75.92l-12.273 7.09v.145l12.33-7.12s.044-.057.029-.086c-.014-.029-.057-.043-.086-.029zM234.35 76.814l-12.273 7.09v.145l12.33-7.12s.044-.058.029-.086c-.014-.03-.057-.044-.086-.03zM247.184 66.769l-12.388 7.148v.144l12.446-7.191s.043-.058.029-.087c-.015-.028-.058-.043-.087-.028v.014zM247.184 67.648l-12.388 7.148v.144l12.446-7.191s.043-.058.029-.087c-.015-.028-.058-.043-.087-.028v.014zM247.184 68.542l-12.388 7.148v.144l12.446-7.192s.043-.057.029-.086c-.015-.029-.058-.043-.087-.029v.015zM247.184 69.42l-12.388 7.149v.144l12.446-7.191s.043-.058.029-.087c-.015-.029-.058-.043-.087-.029v.015zM260.077 59.29l-12.403 7.162v.144l12.475-7.206s.043-.057.028-.086c-.014-.03-.057-.044-.086-.03l-.014.015zM260.077 60.183l-12.403 7.163v.144l12.475-7.206s.043-.058.028-.087c-.014-.029-.057-.043-.086-.029l-.014.015zM260.077 61.062l-12.403 7.163v.144l12.475-7.206s.043-.058.028-.087c-.014-.029-.057-.043-.086-.029l-.014.015zM260.077 61.956l-12.403 7.162v.144l12.475-7.206s.043-.057.028-.086c-.014-.029-.057-.043-.086-.029l-.014.014zM275.259 50.541l-14.678 8.475v.144l14.75-8.518s.043-.057.029-.086c-.014-.029-.058-.043-.087-.029l-.014.014zM275.259 51.42l-14.678 8.475v.144l14.75-8.517s.043-.058.029-.087c-.014-.029-.058-.043-.087-.029l-.014.015zM275.259 52.314l-14.678 8.474v.144l14.75-8.517s.043-.058.029-.087c-.014-.028-.058-.043-.087-.028l-.014.014zM275.259 53.193l-14.678 8.474v.144l14.75-8.517s.043-.057.029-.086c-.014-.03-.058-.044-.087-.03l-.014.015z" fill="#696969"/>
        <path d="m556.986 114.01.259.144-.259.159-.274-.159.274-.144z" fill="#F2F2F2"/>
        <path d="M556.986 114.313v4.468l-.274-.159v-4.468l.274.159z" fill="#D9D9D9"/>
        <path d="M557.245 114.154v4.252l-.259.375v-4.468l.259-.159z" fill="#CCC"/>
        <path d="m556.928 116.691-10.213 14.339-.144-.028 10.256-14.398s.058-.028.087 0c.029.029.029.058 0 .087h.014zM556.885 117.642l-10.213 14.34-.144-.029 10.256-14.397s.058-.029.087 0c.028.028.028.057 0 .086h.014zM556.827 118.521l-10.212 14.34-.145-.029 10.257-14.397s.057-.029.086 0c.029.029.029.057 0 .086h.014z" fill="#696969"/>
        <path d="m546.629 129.935.259.159-.259.144-.274-.144.274-.159z" fill="#F2F2F2"/>
        <path d="M546.629 130.238v3.199l-.274-.158v-3.185l.274.144z" fill="#D9D9D9"/>
        <path d="M546.888 130.094v2.954l-.259.389v-3.199l.259-.144z" fill="#CCC"/>
        <path d="m546.557 131.434-10.516 14.858-.144-.029 10.559-14.916s.058-.028.086 0c.029.029.029.058 0 .087h.015zM546.514 132.385l-10.516 14.858-.144-.028 10.559-14.916s.057-.029.086 0c.029.028.029.057 0 .086h.015zM546.456 133.264l-10.515 14.859-.144-.029 10.558-14.916s.058-.029.087 0c.028.029.028.057 0 .086h.014z" fill="#696969"/>
        <path d="m535.725 144.995.273.159-.273.144-.26-.144.26-.159z" fill="#F2F2F2"/>
        <path d="M535.725 145.298v4.251l-.26-.158v-4.237l.26.144z" fill="#D9D9D9"/>
        <path d="M535.998 145.154v4.237l-.273.158v-4.251l.273-.144z" fill="#CCC"/>
        <path d="m533.319 146.379.259.158-.259.159-.274-.159.274-.158z" fill="#F2F2F2"/>
        <path d="M533.319 146.696v4.237l-.274-.159v-4.237l.274.159z" fill="#D9D9D9"/>
        <path d="M533.578 146.537v4.237l-.259.159v-4.237l.259-.159z" fill="#CCC"/>
        <path d="m520.585 138.986.274.158-.274.159-.273-.159.273-.158z" fill="#F2F2F2"/>
        <path d="M520.585 139.303v4.237l-.273-.159v-4.237l.273.159z" fill="#D9D9D9"/>
        <path d="M520.859 139.144v4.237l-.274.159v-4.237l.274-.159z" fill="#CCC"/>
        <path d="m507.851 131.679.274.158-.274.145-.259-.145.259-.158z" fill="#F2F2F2"/>
        <path d="M507.851 131.982v4.251l-.259-.158v-4.237l.259.144z" fill="#D9D9D9"/>
        <path d="M508.125 131.838v4.237l-.274.158v-4.251l.274-.144z" fill="#CCC"/>
        <path d="m495.132 124.329.259.159-.259.144-.274-.144.274-.159z" fill="#F2F2F2"/>
        <path d="M495.132 124.632v4.237l-.274-.144v-4.237l.274.144z" fill="#D9D9D9"/>
        <path d="M495.391 124.488v4.237l-.259.144v-4.237l.259-.144z" fill="#CCC"/>
        <path d="m482.398 116.965.26.158-.26.144-.273-.144.273-.158z" fill="#F2F2F2"/>
        <path d="M482.398 117.267v4.237l-.273-.144v-4.237l.273.144z" fill="#D9D9D9"/>
        <path d="M482.658 117.123v4.237l-.26.144v-4.237l.26-.144z" fill="#CCC"/>
        <path d="m469.665 109.6.273.159-.273.158-.26-.158.26-.159z" fill="#F2F2F2"/>
        <path d="M469.665 109.917v4.237l-.26-.158v-4.237l.26.158z" fill="#D9D9D9"/>
        <path d="M469.938 109.759v4.237l-.273.158v-4.237l.273-.158z" fill="#CCC"/>
        <path d="m456.931 102.25.274.159-.274.144-.259-.144.259-.159z" fill="#F2F2F2"/>
        <path d="M456.931 102.553v4.251l-.259-.158v-4.237l.259.144z" fill="#D9D9D9"/>
        <path d="M457.205 102.409v4.237l-.274.158v-4.251l.274-.144z" fill="#CCC"/>
        <path d="m444.212 94.915.259.144-.259.159-.274-.159.274-.144z" fill="#F2F2F2"/>
        <path d="M444.212 95.218v4.237l-.274-.159V95.06l.274.159z" fill="#D9D9D9"/>
        <path d="M444.471 95.06v4.236l-.259.159v-4.237l.259-.159z" fill="#CCC"/>
        <path d="m431.478 87.565.274.159-.274.144-.274-.144.274-.16z" fill="#F2F2F2"/>
        <path d="M431.478 87.868v4.237l-.274-.145v-4.236l.274.144z" fill="#D9D9D9"/>
        <path d="M431.752 87.724v4.236l-.274.145v-4.237l.274-.144z" fill="#CCC"/>
        <path d="m418.744 80.2.274.16-.274.143-.259-.144.259-.158z" fill="#F2F2F2"/>
        <path d="M418.744 80.503v4.252l-.259-.159V80.36l.259.144z" fill="#D9D9D9"/>
        <path d="M419.018 80.36v4.236l-.274.159v-4.252l.274-.144z" fill="#CCC"/>
        <path d="m406.025 72.85.259.16-.259.158-.274-.159.274-.158z" fill="#F2F2F2"/>
        <path d="M406.025 73.168v4.237l-.274-.159V73.01l.274.159z" fill="#D9D9D9"/>
        <path d="M406.284 73.01v4.236l-.259.159v-4.237l.259-.159z" fill="#CCC"/>
        <path d="m393.161 65.429.26.144-.26.158-.273-.158.273-.144z" fill="#F2F2F2"/>
        <path d="M393.161 65.731v4.237l-.273-.158v-4.237l.273.158z" fill="#D9D9D9"/>
        <path d="M393.421 65.573v4.237l-.26.158v-4.237l.26-.158z" fill="#CCC"/>
        <path d="m380.255 57.978.259.144-.259.159-.274-.159.274-.144z" fill="#F2F2F2"/>
        <path d="M380.255 58.28v4.238l-.274-.159v-4.237l.274.159z" fill="#D9D9D9"/>
        <path d="M380.514 58.122v4.237l-.259.159V58.28l.259-.159z" fill="#CCC"/>
        <path d="m365.101 49.216.274.158-.274.159-.259-.159.259-.158z" fill="#F2F2F2"/>
        <path d="M365.101 49.533v4.237l-.259-.159v-4.237l.259.159z" fill="#D9D9D9"/>
        <path d="M365.375 49.374v4.237l-.274.159v-4.237l.274-.159z" fill="#CCC"/>
        <path d="m520.772 140.355 12.273 7.09v.144l-12.33-7.119s-.043-.058-.029-.087c.014-.028.058-.043.086-.028zM520.772 141.234l12.273 7.09v.144l-12.33-7.119s-.043-.058-.029-.086c.014-.029.058-.044.086-.029zM520.772 142.127l12.273 7.091v.144l-12.33-7.119s-.043-.058-.029-.087c.014-.029.058-.043.086-.029zM520.772 143.006l12.273 7.091v.144l-12.33-7.119s-.043-.058-.029-.087c.014-.029.058-.043.086-.029zM535.494 146.35l-1.916 1.095v.144l1.974-1.138s.043-.058.028-.087c-.014-.029-.057-.043-.086-.029v.015zM535.494 147.243l-1.916 1.096v.144l1.974-1.139s.043-.057.028-.086c-.014-.029-.057-.043-.086-.029v.014zM535.494 148.137l-1.916 1.095v.144l1.974-1.138s.043-.058.028-.087c-.014-.029-.057-.043-.086-.029v.015zM535.494 149.016l-1.916 1.095v.144l1.974-1.138s.043-.058.028-.087c-.014-.028-.057-.043-.086-.028v.014zM508.053 132.976l12.273 7.091v.144l-12.33-7.12s-.044-.057-.029-.086c.014-.029.057-.043.086-.029zM508.053 133.87l12.273 7.09v.144l-12.33-7.119s-.044-.058-.029-.087c.014-.028.057-.043.086-.028zM508.053 134.749l12.273 7.09v.144l-12.33-7.119s-.044-.058-.029-.087c.014-.028.057-.043.086-.028zM508.053 135.642l12.273 7.091v.144l-12.33-7.12s-.044-.057-.029-.086c.014-.029.057-.043.086-.029zM495.319 125.626l12.273 7.091v.144l-12.33-7.12s-.043-.057-.029-.086c.014-.029.058-.043.086-.029zM495.319 126.505l12.273 7.091v.144l-12.33-7.12s-.043-.057-.029-.086c.014-.029.058-.043.086-.029zM495.319 127.399l12.273 7.09v.144l-12.33-7.119s-.043-.058-.029-.087c.014-.028.058-.043.086-.028zM495.319 128.278l12.273 7.09v.144l-12.33-7.119s-.043-.058-.029-.086c.014-.029.058-.044.086-.029zM482.586 118.276l12.272 7.091v.144l-12.33-7.12s-.043-.057-.029-.086a.07.07 0 0 1 .087-.029zM482.586 119.17l12.272 7.09v.144l-12.33-7.119s-.043-.058-.029-.086c.015-.029.058-.044.087-.029zM482.586 120.049l12.272 7.09v.144l-12.33-7.119s-.043-.058-.029-.086c.015-.029.058-.044.087-.029zM482.586 120.942l12.272 7.091v.144l-12.33-7.119s-.043-.058-.029-.087a.07.07 0 0 1 .087-.029zM469.852 110.926l12.273 7.091v.144l-12.331-7.12s-.043-.057-.028-.086c.014-.029.057-.043.086-.029zM469.852 111.805l12.273 7.091v.144l-12.331-7.119s-.043-.058-.028-.087c.014-.029.057-.043.086-.029zM469.852 112.699l12.273 7.09v.144l-12.331-7.119s-.043-.058-.028-.086c.014-.029.057-.044.086-.029zM469.852 113.578l12.273 7.09v.145l-12.331-7.12s-.043-.057-.028-.086c.014-.029.057-.043.086-.029zM457.133 103.605l12.272 7.091v.144l-12.33-7.12s-.043-.057-.029-.086a.07.07 0 0 1 .087-.029zM457.133 104.499l12.272 7.09v.144l-12.33-7.119s-.043-.058-.029-.086c.015-.029.058-.044.087-.029zM457.133 105.378l12.272 7.09v.144l-12.33-7.119s-.043-.058-.029-.086c.015-.029.058-.044.087-.029zM457.133 106.271l12.272 7.091v.144l-12.33-7.119s-.043-.058-.029-.087c.015-.029.058-.043.087-.029zM444.399 96.298l12.273 7.091v.144l-12.331-7.12s-.043-.057-.029-.086c.015-.029.058-.043.087-.029zM444.399 97.177l12.273 7.091v.144l-12.331-7.12s-.043-.057-.029-.086c.015-.029.058-.043.087-.029zM444.399 98.071l12.273 7.09v.145l-12.331-7.12s-.043-.057-.029-.086c.015-.029.058-.043.087-.029zM444.399 98.95l12.273 7.091v.144l-12.331-7.12s-.043-.057-.029-.086c.015-.029.058-.043.087-.029zM431.665 88.89l12.273 7.091v.144l-12.33-7.119s-.044-.058-.029-.086c.014-.03.057-.044.086-.03zM431.665 89.784l12.273 7.09v.145l-12.33-7.12s-.044-.057-.029-.086c.014-.029.057-.043.086-.029zM431.665 90.663l12.273 7.09v.145l-12.33-7.12s-.044-.057-.029-.086c.014-.029.057-.043.086-.029zM431.665 91.557l12.273 7.09v.145l-12.33-7.12s-.044-.057-.029-.086c.014-.03.057-.043.086-.03zM418.946 81.483l12.273 7.09v.145l-12.331-7.12s-.043-.057-.029-.086c.015-.029.058-.043.087-.029zM418.946 82.377l12.273 7.09v.145l-12.331-7.12s-.043-.058-.029-.086c.015-.03.058-.044.087-.03zM418.946 83.27l12.273 7.09v.145l-12.331-7.12s-.043-.057-.029-.086c.015-.029.058-.043.087-.029zM418.946 84.15l12.273 7.09v.144l-12.331-7.12s-.043-.057-.029-.086c.015-.028.058-.043.087-.028zM406.212 74.148l12.273 7.09v.144l-12.331-7.119s-.043-.058-.028-.086c.014-.03.057-.044.086-.03zM406.212 75.041l12.273 7.09v.145l-12.331-7.12s-.043-.057-.028-.086c.014-.029.057-.043.086-.029zM406.212 75.92l12.273 7.09v.145l-12.331-7.12s-.043-.057-.028-.086c.014-.029.057-.043.086-.029zM406.212 76.814l12.273 7.09v.145l-12.331-7.12s-.043-.058-.028-.086c.014-.03.057-.044.086-.03zM393.363 66.769l12.388 7.148v.144l-12.46-7.191s-.043-.058-.029-.087c.015-.028.058-.043.087-.028l.014.014zM393.363 67.648l12.388 7.148v.144l-12.46-7.191s-.043-.058-.029-.087c.015-.028.058-.043.087-.028l.014.014zM393.363 68.542l12.388 7.148v.144l-12.46-7.192s-.043-.057-.029-.086c.015-.029.058-.043.087-.029l.014.015zM393.363 69.42l12.388 7.149v.144l-12.46-7.191s-.043-.058-.029-.087c.015-.029.058-.043.087-.029l.014.015zM380.471 59.29l12.417 7.162v.144l-12.475-7.206s-.043-.057-.029-.086c.015-.03.058-.044.087-.03v.015zM380.471 60.183l12.417 7.163v.144l-12.475-7.206s-.043-.058-.029-.087c.015-.029.058-.043.087-.029v.015zM380.471 61.062l12.417 7.163v.144l-12.475-7.206s-.043-.058-.029-.087c.015-.029.058-.043.087-.029v.015zM380.471 61.956l12.417 7.162v.144l-12.475-7.206s-.043-.057-.029-.086c.015-.029.058-.043.087-.029v.014zM365.288 50.541l14.679 8.475v.144l-14.751-8.518s-.043-.057-.028-.086c.014-.029.057-.043.086-.029l.014.014zM365.288 51.42l14.679 8.475v.144l-14.751-8.517s-.043-.058-.028-.087c.014-.029.057-.043.086-.029l.014.015zM365.288 52.314l14.679 8.474v.144l-14.751-8.517s-.043-.058-.028-.087c.014-.028.057-.043.086-.028l.014.014zM365.288 53.193l14.679 8.474v.144l-14.751-8.517s-.043-.057-.028-.086c.014-.03.057-.044.086-.03l.014.015z" fill="#696969"/>
        <path d="M243.252 8.085h154.087l-9.565 5.606H252.802l-9.55-5.606z" fill="#8279F2"/>
        <path d="M397.324.72H243.252v7.365h154.072V.72z" fill="#7676E2"/>
        <path d="M242.042 0h156.492l-1.21.72H243.252l-1.21-.72z" fill="#9B99FF"/>
        <path d="M322.06 212.917v-.158h-3.457v.158c0 .36.173.721.533.937a2.408 2.408 0 0 0 2.376 0c.361-.202.533-.577.533-.937h.015z" fill="#90968F"/>
        <path d="M321.513 213.695c.72-.418.72-1.455 0-1.873a2.41 2.41 0 0 0-2.377 0 1.082 1.082 0 0 0 0 1.873 2.41 2.41 0 0 0 2.377 0z" fill="#E8E8E8"/>
        <path d="M267.106 244.969v-.159h-3.457v.159c0 .36.173.72.533.936a2.41 2.41 0 0 0 2.377 0 1.06 1.06 0 0 0 .533-.936h.014z" fill="#90968F"/>
        <path d="M266.573 245.747c.72-.418.72-1.456 0-1.874a2.41 2.41 0 0 0-2.377 0 1.083 1.083 0 0 0 0 1.874 2.41 2.41 0 0 0 2.377 0z" fill="#E8E8E8"/>
        <path d="M377.504 244.969v-.159h-3.458v.159c0 .36.173.72.533.936a2.41 2.41 0 0 0 2.377 0 1.06 1.06 0 0 0 .533-.936h.015z" fill="#90968F"/>
        <path d="M376.956 245.747c.72-.418.72-1.456 0-1.874a2.41 2.41 0 0 0-2.377 0 1.083 1.083 0 0 0 0 1.874 2.41 2.41 0 0 0 2.377 0z" fill="#E8E8E8"/>
        <path d="M326.223 244.724c0 2.291-2.651 4.15-5.935 4.15s-5.935-1.859-5.935-4.15c0-2.292 2.651-4.742 5.935-4.742s5.935 2.45 5.935 4.742z" fill="#896049"/>
        <path d="m81.444 146.09-15.413 8.892 15.413 8.892 15.427-8.892-15.427-8.892z" fill="#F0F0F0"/>
        <path d="M81.444 163.874v71.208l15.413-8.892.014-71.208-15.427 8.892z" fill="#42C6C2"/>
        <path d="M66.031 154.982v71.208l15.413 8.892v-71.208l-15.413-8.892z" fill="#39BFC6"/>
        <path d="m81.444 128.062-17.56 10.131 17.56 10.131 17.574-10.131-17.574-10.131z" fill="#72C8FC"/>
        <path d="m81.444 131.088-12.316 7.105 12.316 7.105 12.33-7.105-12.33-7.105z" fill="#D6D6D6"/>
        <path d="m71.246 139.418 10.198 5.88 10.199-5.88-10.199-5.88-10.198 5.88z" fill="#408DD3"/>
        <path d="M81.444 133.538v-2.45l-12.316 7.105 2.118 1.225 10.198-5.88z" fill="#3871AF"/>
        <path d="m81.444 131.088 12.33 7.105-2.131 1.225-10.199-5.88v-2.45z" fill="#3984BC"/>
        <path d="M81.444 148.324v19.139l17.56-10.146.014-19.124-17.574 10.131z" fill="#408DD3"/>
        <path d="M63.885 138.193v19.124l17.56 10.146v-19.139l-17.56-10.131z" fill="#3871AF"/>
        <path d="m81.415 190.565 23.12-13.346 161.822 93.474-23.105 13.345-161.837-93.473z" fill="#8279F2"/>
        <path d="m87.192 190.738 17.905-10.391 155.08 89.481-17.89 10.377-155.096-89.467z" fill="#6F63C9"/>
        <path d="M81.415 190.565v44.503l161.837 93.488v-44.518L81.415 190.565z" fill="#6C5ABA"/>
        <path d="m243.252 284.038 23.105-13.345v44.503l-23.105 13.36v-44.518z" fill="#A3A3A3"/>
        <path d="m89.424 192.02 15.673-9.094v-2.579l-17.905 10.391 2.232 1.282z" fill="#4E48A0"/>
        <path d="m105.097 182.926 152.848 88.185 2.232-1.283-155.08-89.481v2.579z" fill="#5755B7"/>
        <path d="m81.43 203.621 7.72-4.438 146.395 84.581-7.706 4.439-146.41-84.582z" fill="#56E8E8"/>
        <path d="M81.43 203.621v40.353l146.409 84.582v-40.353l-146.41-84.582z" fill="#39BFC6"/>
        <path d="m227.839 288.203 7.706-4.439v40.339l-7.706 4.453v-40.353z" fill="#42C6C2"/>
        <path d="m89.15 225.787 1.023-.591v13.734l-1.022.591v-13.734z" fill="#239696"/>
        <path d="m90.173 238.93 7.448 4.295-1.023.591-7.447-4.295 1.022-.591z" fill="#29A5A2"/>
        <path d="m90.173 225.196 7.448 4.294v13.735l-7.448-4.295v-13.734z" fill="#245B5B"/>
        <path d="m102.72 233.699 1.023-.606v13.735l-1.023.59v-13.719z" fill="#239696"/>
        <path d="m103.743 246.828 7.447 4.309-1.023.591-7.447-4.31 1.023-.59z" fill="#29A5A2"/>
        <path d="m103.742 233.093 7.448 4.309v13.735l-7.448-4.309v-13.735z" fill="#245B5B"/>
        <path d="m116.289 241.524 1.023-.591v13.734l-1.023.591v-13.734z" fill="#239696"/>
        <path d="m117.312 254.667 7.447 4.31-1.023.59-7.447-4.309 1.023-.591z" fill="#29A5A2"/>
        <path d="m117.312 240.933 7.447 4.309v13.735l-7.447-4.31v-13.734z" fill="#245B5B"/>
        <path d="m129.858 249.321 1.037-.591v13.734l-1.037.591v-13.734z" fill="#239696"/>
        <path d="m130.895 262.464 7.448 4.295-1.038.591-7.447-4.295 1.037-.591z" fill="#29A5A2"/>
        <path d="m130.895 248.73 7.448 4.295v13.734l-7.448-4.295V248.73z" fill="#245B5B"/>
        <path d="m143.442 257.175 1.023-.591v13.735l-1.023.59v-13.734z" fill="#239696"/>
        <path d="m144.465 270.319 7.447 4.294-1.023.591-7.447-4.295 1.023-.59z" fill="#29A5A2"/>
        <path d="m144.465 256.584 7.447 4.295v13.734l-7.447-4.294v-13.735z" fill="#245B5B"/>
        <path d="m157.011 265.001 1.023-.591v13.734l-1.023.591v-13.734z" fill="#239696"/>
        <path d="m158.034 278.144 7.447 4.309-1.023.591-7.447-4.309 1.023-.591z" fill="#29A5A2"/>
        <path d="m158.034 264.41 7.447 4.309v13.734l-7.447-4.309V264.41z" fill="#245B5B"/>
        <path d="m170.58 272.812 1.023-.591v13.734l-1.023.591v-13.734z" fill="#239696"/>
        <path d="m171.603 285.955 7.447 4.309-1.023.591-7.447-4.309 1.023-.591z" fill="#29A5A2"/>
        <path d="m171.603 272.221 7.447 4.309v13.734l-7.447-4.309v-13.734z" fill="#245B5B"/>
        <path d="m184.149 280.695 1.023-.591v13.734l-1.023.591v-13.734z" fill="#239696"/>
        <path d="m185.172 293.838 7.447 4.295-1.022.605-7.448-4.309 1.023-.591z" fill="#29A5A2"/>
        <path d="m185.172 280.104 7.447 4.309v13.72l-7.447-4.295v-13.734z" fill="#245B5B"/>
        <path d="m197.719 288.506 1.037-.605v13.734l-1.037.605v-13.734z" fill="#239696"/>
        <path d="m198.756 301.635 7.447 4.309-1.037.591-7.447-4.295 1.037-.605z" fill="#29A5A2"/>
        <path d="m198.756 287.901 7.447 4.309v13.734l-7.447-4.309v-13.734z" fill="#245B5B"/>
        <path d="m211.302 296.317 1.023-.591v13.734l-1.023.591v-13.734z" fill="#239696"/>
        <path d="m212.325 309.46 7.447 4.309-1.022.591-7.448-4.309 1.023-.591z" fill="#29A5A2"/>
        <path d="m212.325 295.726 7.447 4.309v13.734l-7.447-4.309v-13.734z" fill="#245B5B"/>
        <path d="m131.832 175.85-13.526-7.825v11.731l13.526 7.811V175.85z" fill="#C1C1C1"/>
        <path d="m131.832 175.85.273-.158-13.526-7.826-.273.159 13.526 7.825z" fill="#EBEBEB"/>
        <path d="M131.832 187.567V175.85l.273-.158v11.717l-.273.158z" fill="#A3A3A3"/>
        <path d="M121.676 179.857v15.348a.301.301 0 0 1-.158.259.702.702 0 0 1-.677 0 .302.302 0 0 1-.159-.259v-15.348h.994z" fill="#DDD"/>
        <path d="M120.855 180.131a.312.312 0 0 1 0-.534.707.707 0 0 1 .677 0 .311.311 0 0 1 0 .534.707.707 0 0 1-.677 0z" fill="#C1C1C1"/>
        <path d="m126.948 196.877-5.531-3.156M126.948 194.456l-5.531-3.156M126.948 192.049l-5.531-3.171M126.948 189.628l-5.531-3.156M126.948 187.207l-5.531-3.156M121.417 193.432l2.622-.634 2.909 3.906M121.417 191.112l2.622-.648 2.909 3.92M121.417 188.778l2.622-.635 2.909 3.906M121.417 186.342l2.622-.649 2.909 3.92" stroke="#2F302F" stroke-width=".15" stroke-miterlimit="10" stroke-linecap="round"/>
        <path d="M127.568 183.633v15.348a.302.302 0 0 1-.159.259.702.702 0 0 1-.677 0 .303.303 0 0 1-.158-.259v-15.348h.994z" fill="#DDD"/>
        <path d="M126.747 183.906a.31.31 0 0 1 0-.533.707.707 0 0 1 .677 0 .31.31 0 0 1 0 .533.702.702 0 0 1-.677 0zM170.537 198.116l-13.526-7.811v11.717l13.526 7.811v-11.717z" fill="#C1C1C1"/>
        <path d="m170.537 198.116.274-.158-13.526-7.811-.274.158 13.526 7.811z" fill="#EBEBEB"/>
        <path d="M170.537 209.833v-11.717l.274-.158v11.731l-.274.144z" fill="#A3A3A3"/>
        <path d="M160.396 202.137v15.348a.304.304 0 0 1-.158.26.707.707 0 0 1-.677 0 .305.305 0 0 1-.159-.26v-15.348h.994z" fill="#DDD"/>
        <path d="M159.561 202.397a.311.311 0 0 1 0-.534.707.707 0 0 1 .677 0 .311.311 0 0 1 0 .534.707.707 0 0 1-.677 0z" fill="#C1C1C1"/>
        <path d="m165.668 219.143-5.546-3.156M165.668 216.736l-5.546-3.17M165.668 214.315l-5.546-3.156M165.668 211.894l-5.546-3.156M165.668 209.487l-5.546-3.17M160.122 215.713l2.622-.649 2.924 3.92M160.122 213.378l2.622-.634 2.924 3.906M160.122 211.044l2.622-.635 2.924 3.906M160.122 208.608l2.622-.634 2.924 3.905" stroke="#2F302F" stroke-width=".15" stroke-miterlimit="10" stroke-linecap="round"/>
        <path d="M166.273 205.913v15.348a.304.304 0 0 1-.158.26.707.707 0 0 1-.677 0 .305.305 0 0 1-.159-.26v-15.348h.994z" fill="#DDD"/>
        <path d="M165.452 206.172a.31.31 0 0 1 0-.533.707.707 0 0 1 .677 0 .31.31 0 0 1 0 .533.702.702 0 0 1-.677 0zM208.81 220.339l-13.526-7.811v11.717l13.526 7.811v-11.717z" fill="#C1C1C1"/>
        <path d="m208.81 220.339.288-.159-13.54-7.811-.274.159 13.526 7.811z" fill="#EBEBEB"/>
        <path d="M208.81 232.056v-11.717l.288-.159v11.731l-.288.145z" fill="#A3A3A3"/>
        <path d="M198.669 224.36v15.348a.304.304 0 0 1-.158.26.707.707 0 0 1-.677 0 .305.305 0 0 1-.159-.26V224.36h.994z" fill="#DDD"/>
        <path d="M197.849 224.619a.31.31 0 0 1 0-.533.707.707 0 0 1 .677 0 .31.31 0 0 1 0 .533.702.702 0 0 1-.677 0z" fill="#C1C1C1"/>
        <path d="m203.941 241.365-5.531-3.156M203.941 238.959l-5.531-3.171M203.941 236.538l-5.531-3.157M203.941 234.116l-5.531-3.156M203.941 231.71l-5.531-3.171M198.41 237.921l2.622-.634 2.909 3.92M198.41 235.601l2.622-.634 2.909 3.905M198.41 233.266l2.622-.634 2.909 3.906M198.41 230.831l2.622-.634 2.909 3.905" stroke="#2F302F" stroke-width=".15" stroke-miterlimit="10" stroke-linecap="round"/>
        <path d="M204.561 228.136v15.348a.302.302 0 0 1-.159.259.702.702 0 0 1-.677 0 .303.303 0 0 1-.158-.259v-15.348h.994z" fill="#DDD"/>
        <path d="M203.726 228.395a.31.31 0 0 1 0-.533.707.707 0 0 1 .677 0 .31.31 0 0 1 0 .533.707.707 0 0 1-.677 0zM247.098 242.562l-13.541-7.811v11.716l13.541 7.811v-11.716z" fill="#C1C1C1"/>
        <path d="m247.098 242.562.274-.159-13.526-7.811-.289.159 13.541 7.811z" fill="#EBEBEB"/>
        <path d="M247.098 254.278v-11.716l.274-.159v11.717l-.274.158z" fill="#A3A3A3"/>
        <path d="M236.943 246.583v15.348a.302.302 0 0 1-.159.259.702.702 0 0 1-.677 0 .301.301 0 0 1-.158-.259v-15.348h.994z" fill="#DDD"/>
        <path d="M236.122 246.842a.31.31 0 0 1 0-.533.702.702 0 0 1 .677 0 .31.31 0 0 1 0 .533.707.707 0 0 1-.677 0z" fill="#C1C1C1"/>
        <path d="m242.215 263.588-5.532-3.156M242.215 261.181l-5.532-3.17M242.215 258.76l-5.532-3.156M242.215 256.339l-5.532-3.156M242.215 253.932l-5.532-3.17M236.683 260.144l2.622-.634 2.91 3.92M236.683 257.824l2.622-.634 2.91 3.905M236.683 255.489l2.622-.634 2.91 3.905M236.683 253.053l2.622-.634 2.91 3.906" stroke="#2F302F" stroke-width=".15" stroke-miterlimit="10" stroke-linecap="round"/>
        <path d="M242.834 250.358v15.349a.301.301 0 0 1-.158.259.707.707 0 0 1-.677 0 .302.302 0 0 1-.159-.259v-15.349h.994z" fill="#DDD"/>
        <path d="M241.999 250.618a.31.31 0 0 1 0-.533.702.702 0 0 1 .677 0 .31.31 0 0 1 0 .533.707.707 0 0 1-.677 0z" fill="#C1C1C1"/>
        <path d="m559.175 146.09 15.413 8.892-15.413 8.892-15.427-8.892 15.427-8.892z" fill="#F0F0F0"/>
        <path d="M559.175 163.874v71.208l-15.413-8.892-.014-71.208 15.427 8.892z" fill="#42C6C2"/>
        <path d="M574.588 154.982v71.208l-15.413 8.892v-71.208l15.413-8.892z" fill="#39BFC6"/>
        <path d="m559.175 128.062 17.56 10.131-17.56 10.131-17.573-10.131 17.573-10.131z" fill="#72C8FC"/>
        <path d="m559.175 131.088 12.316 7.105-12.316 7.105-12.33-7.105 12.33-7.105z" fill="#D6D6D6"/>
        <path d="m569.374 139.418-10.199 5.88-10.198-5.88 10.198-5.88 10.199 5.88z" fill="#408DD3"/>
        <path d="M559.175 133.538v-2.45l12.316 7.105-2.117 1.225-10.199-5.88z" fill="#3984BC"/>
        <path d="m559.175 131.088-12.33 7.105 2.132 1.225 10.198-5.88v-2.45zM559.175 148.324v19.139l-17.559-10.146-.014-19.124 17.573 10.131z" fill="#3871AF"/>
        <path d="M576.735 138.193v19.124l-17.56 10.146v-19.139l17.56-10.131z" fill="#408DD3"/>
        <path d="m559.204 190.565-23.119-13.346-161.822 93.474 23.105 13.345 161.836-93.473z" fill="#8279F2"/>
        <path d="m553.428 190.738-17.905-10.391-155.081 89.481 17.891 10.377 155.095-89.467z" fill="#6F63C9"/>
        <path d="M559.204 190.565v44.503l-161.836 93.488v-44.518l161.836-93.473z" fill="#6C5ABA"/>
        <path d="m397.368 284.038-23.105-13.345v44.503l23.105 13.36v-44.518z" fill="#A3A3A3"/>
        <path d="m551.195 192.02-15.672-9.094v-2.579l17.905 10.391-2.233 1.282z" fill="#4E48A0"/>
        <path d="m535.523 182.926-152.848 88.185-2.233-1.283 155.081-89.481v2.579z" fill="#5755B7"/>
        <path d="m559.19 203.621-7.721-4.438-146.395 84.581 7.707 4.439 146.409-84.582z" fill="#56E8E8"/>
        <path d="M559.19 203.621v40.353l-146.409 84.582v-40.353l146.409-84.582z" fill="#39BFC6"/>
        <path d="m412.781 288.203-7.707-4.439v40.339l7.707 4.453v-40.353z" fill="#42C6C2"/>
        <path d="m551.469 225.787-1.023-.591v13.734l1.023.591v-13.734z" fill="#239696"/>
        <path d="m550.446 238.93-7.447 4.295 1.023.591 7.447-4.295-1.023-.591z" fill="#29A5A2"/>
        <path d="m550.446 225.196-7.447 4.294v13.735l7.447-4.295v-13.734z" fill="#245B5B"/>
        <path d="m537.9 233.699-1.023-.606v13.735l1.023.59v-13.719z" fill="#239696"/>
        <path d="m536.877 246.828-7.447 4.309 1.022.591 7.448-4.31-1.023-.59z" fill="#29A5A2"/>
        <path d="m536.877 233.093-7.447 4.309v13.735l7.447-4.309v-13.735z" fill="#245B5B"/>
        <path d="m524.331 241.524-1.023-.591v13.734l1.023.591v-13.734z" fill="#239696"/>
        <path d="m523.308 254.667-7.447 4.31 1.022.59 7.447-4.309-1.022-.591z" fill="#29A5A2"/>
        <path d="m523.308 240.933-7.447 4.309v13.735l7.447-4.31v-13.734z" fill="#245B5B"/>
        <path d="m510.761 249.321-1.037-.591v13.734l1.037.591v-13.734z" fill="#239696"/>
        <path d="m509.724 262.464-7.447 4.295 1.037.591 7.447-4.295-1.037-.591z" fill="#29A5A2"/>
        <path d="m509.724 248.73-7.447 4.295v13.734l7.447-4.295V248.73z" fill="#245B5B"/>
        <path d="m497.178 257.175-1.023-.591v13.735l1.023.59v-13.734z" fill="#239696"/>
        <path d="m496.155 270.319-7.447 4.294 1.022.591 7.448-4.295-1.023-.59z" fill="#29A5A2"/>
        <path d="m496.155 256.584-7.447 4.295v13.734l7.447-4.294v-13.735z" fill="#245B5B"/>
        <path d="m483.608 265.001-1.022-.591v13.734l1.022.591v-13.734z" fill="#239696"/>
        <path d="m482.586 278.144-7.448 4.309 1.023.591 7.447-4.309-1.022-.591z" fill="#29A5A2"/>
        <path d="m482.586 264.41-7.448 4.309v13.734l7.448-4.309V264.41z" fill="#245B5B"/>
        <path d="m470.039 272.812-1.022-.591v13.734l1.022.591v-13.734z" fill="#239696"/>
        <path d="m469.017 285.955-7.448 4.309 1.023.591 7.447-4.309-1.022-.591z" fill="#29A5A2"/>
        <path d="m469.017 272.221-7.448 4.309v13.734l7.448-4.309v-13.734z" fill="#245B5B"/>
        <path d="m456.47 280.695-1.023-.591v13.734l1.023.591v-13.734z" fill="#239696"/>
        <path d="M455.447 293.838 448 298.133l1.023.605 7.447-4.309-1.023-.591z" fill="#29A5A2"/>
        <path d="M455.447 280.104 448 284.413v13.72l7.447-4.295v-13.734z" fill="#245B5B"/>
        <path d="m442.901 288.506-1.037-.605v13.734l1.037.605v-13.734z" fill="#239696"/>
        <path d="m441.864 301.635-7.448 4.309 1.038.591 7.447-4.295-1.037-.605z" fill="#29A5A2"/>
        <path d="m441.864 287.901-7.448 4.309v13.734l7.448-4.309v-13.734z" fill="#245B5B"/>
        <path d="m429.317 296.317-1.023-.591v13.734l1.023.591v-13.734z" fill="#239696"/>
        <path d="m428.294 309.46-7.447 4.309 1.023.591 7.447-4.309-1.023-.591z" fill="#29A5A2"/>
        <path d="m428.294 295.726-7.447 4.309v13.734l7.447-4.309v-13.734z" fill="#245B5B"/>
        <path d="m508.788 175.85 13.526-7.825v11.731l-13.526 7.811V175.85z" fill="#C1C1C1"/>
        <path d="m508.788 175.85-.274-.158 13.526-7.826.274.159-13.526 7.825z" fill="#EBEBEB"/>
        <path d="M508.788 187.567V175.85l-.274-.158v11.717l.274.158z" fill="#A3A3A3"/>
        <path d="M518.943 179.857v15.348c0 .101.058.202.159.259.201.116.46.116.677 0a.303.303 0 0 0 .158-.259v-15.348h-.994z" fill="#DDD"/>
        <path d="M519.764 180.131a.311.311 0 0 0 0-.534.707.707 0 0 0-.677 0 .311.311 0 0 0 0 .534.707.707 0 0 0 .677 0z" fill="#C1C1C1"/>
        <path d="m513.671 196.877 5.531-3.156M513.671 194.456l5.531-3.156M513.671 192.049l5.531-3.171M513.671 189.628l5.531-3.156M513.671 187.207l5.531-3.156M519.202 193.432l-2.621-.634-2.91 3.906M519.202 191.112l-2.621-.648-2.91 3.92M519.202 188.778l-2.621-.635-2.91 3.906M519.202 186.342l-2.621-.649-2.91 3.92" stroke="#2F302F" stroke-width=".15" stroke-miterlimit="10" stroke-linecap="round"/>
        <path d="M513.052 183.633v15.348c0 .101.057.202.158.259a.702.702 0 0 0 .677 0 .302.302 0 0 0 .159-.259v-15.348h-.994z" fill="#DDD"/>
        <path d="M513.873 183.906a.31.31 0 0 0 0-.533.707.707 0 0 0-.677 0 .31.31 0 0 0 0 .533.702.702 0 0 0 .677 0zM470.082 198.116l13.526-7.811v11.717l-13.526 7.811v-11.717z" fill="#C1C1C1"/>
        <path d="m470.082 198.116-.273-.158 13.526-7.811.273.158-13.526 7.811z" fill="#EBEBEB"/>
        <path d="M470.082 209.833v-11.717l-.273-.158v11.731l.273.144z" fill="#A3A3A3"/>
        <path d="M480.223 202.137v15.348c0 .101.058.202.159.26a.707.707 0 0 0 .677 0 .304.304 0 0 0 .158-.26v-15.348h-.994z" fill="#DDD"/>
        <path d="M481.059 202.397a.311.311 0 0 0 0-.534.707.707 0 0 0-.677 0 .311.311 0 0 0 0 .534.707.707 0 0 0 .677 0z" fill="#C1C1C1"/>
        <path d="m474.951 219.143 5.546-3.156M474.951 216.736l5.546-3.17M474.951 214.315l5.546-3.156M474.951 211.894l5.546-3.156M474.951 209.487l5.546-3.17M480.497 215.713l-2.622-.649-2.924 3.92M480.497 213.378l-2.622-.634-2.924 3.906M480.497 211.044l-2.622-.635-2.924 3.906M480.497 208.608l-2.622-.634-2.924 3.905" stroke="#2F302F" stroke-width=".15" stroke-miterlimit="10" stroke-linecap="round"/>
        <path d="M474.346 205.913v15.348c0 .101.058.202.159.26a.707.707 0 0 0 .677 0 .304.304 0 0 0 .158-.26v-15.348h-.994z" fill="#DDD"/>
        <path d="M475.167 206.172a.31.31 0 0 0 0-.533.707.707 0 0 0-.677 0 .31.31 0 0 0 0 .533.702.702 0 0 0 .677 0zM431.809 220.339l13.526-7.811v11.717l-13.526 7.811v-11.717z" fill="#C1C1C1"/>
        <path d="m431.809 220.339-.288-.159 13.541-7.811.273.159-13.526 7.811z" fill="#EBEBEB"/>
        <path d="M431.809 232.056v-11.717l-.288-.159v11.731l.288.145z" fill="#A3A3A3"/>
        <path d="M441.95 224.36v15.348c0 .101.058.202.159.26.201.115.46.115.677 0a.306.306 0 0 0 .158-.26V224.36h-.994z" fill="#DDD"/>
        <path d="M442.771 224.619a.31.31 0 0 0 0-.533.707.707 0 0 0-.677 0 .31.31 0 0 0 0 .533.702.702 0 0 0 .677 0z" fill="#C1C1C1"/>
        <path d="m436.678 241.365 5.531-3.156M436.678 238.959l5.531-3.171M436.678 236.538l5.531-3.157M436.678 234.116l5.531-3.156M436.678 231.71l5.531-3.171M442.209 237.921l-2.621-.634-2.91 3.92M442.209 235.601l-2.621-.634-2.91 3.905M442.209 233.266l-2.621-.634-2.91 3.906M442.209 230.831l-2.621-.634-2.91 3.905" stroke="#2F302F" stroke-width=".15" stroke-miterlimit="10" stroke-linecap="round"/>
        <path d="M436.059 228.136v15.348c0 .101.057.202.158.259a.702.702 0 0 0 .677 0 .302.302 0 0 0 .159-.259v-15.348h-.994z" fill="#DDD"/>
        <path d="M436.894 228.395a.31.31 0 0 0 0-.533.707.707 0 0 0-.677 0 .31.31 0 0 0 0 .533.707.707 0 0 0 .677 0zM393.522 242.562l13.54-7.811v11.716l-13.54 7.811v-11.716z" fill="#C1C1C1"/>
        <path d="m393.522 242.562-.274-.159 13.526-7.811.288.159-13.54 7.811z" fill="#EBEBEB"/>
        <path d="M393.522 254.278v-11.716l-.274-.159v11.717l.274.158z" fill="#A3A3A3"/>
        <path d="M403.677 246.583v15.348c0 .101.057.202.158.259a.702.702 0 0 0 .677 0 .302.302 0 0 0 .159-.259v-15.348h-.994z" fill="#DDD"/>
        <path d="M404.498 246.842a.31.31 0 0 0 0-.533.702.702 0 0 0-.677 0 .31.31 0 0 0 0 .533.707.707 0 0 0 .677 0z" fill="#C1C1C1"/>
        <path d="m398.405 263.588 5.531-3.156M398.405 261.181l5.531-3.17M398.405 258.76l5.531-3.156M398.405 256.339l5.531-3.156M398.405 253.932l5.531-3.17M403.936 260.144l-2.622-.634-2.909 3.92M403.936 257.824l-2.622-.634-2.909 3.905M403.936 255.489l-2.622-.634-2.909 3.905M403.936 253.053l-2.622-.634-2.909 3.906" stroke="#2F302F" stroke-width=".15" stroke-miterlimit="10" stroke-linecap="round"/>
        <path d="M397.785 250.358v15.349c0 .101.058.202.159.259a.707.707 0 0 0 .677 0 .301.301 0 0 0 .158-.259v-15.349h-.994z" fill="#DDD"/>
        <path d="M398.621 250.618a.31.31 0 0 0 0-.533.702.702 0 0 0-.677 0 .31.31 0 0 0 0 .533.707.707 0 0 0 .677 0z" fill="#C1C1C1"/>
    </g>
    <defs>
        <clipPath id="58db3trb6a">
            <path fill="#fff" d="M0 0h640v435H0z"/>
        </clipPath>
    </defs>
</svg>
